<svg width="33" height="11" viewBox="0 0 33 11" fill="none" xmlns="http://www.w3.org/2000/svg">
<path d="M5.69169 1.41755C4.80886 1.4314 2.96707 1.4764 2.39451 1.6564C1.97425 1.79486 1.66399 2.21025 1.55117 2.69486C1.35656 3.62948 1.35938 5.5714 1.35938 5.5714C1.35938 5.5714 1.35656 7.51332 1.55117 8.44794C1.66117 8.96717 1.99963 9.34794 2.39451 9.4864C3.15322 9.72871 6.17399 9.72178 6.17399 9.72178C6.17399 9.72178 9.19194 9.72525 9.95348 9.4864C10.3766 9.34794 10.684 8.93255 10.7968 8.44794C10.9914 7.51332 10.9886 5.5714 10.9886 5.5714C10.9886 5.5714 11.0196 3.62948 10.7968 2.69486C10.684 2.17563 10.3484 1.79486 9.95348 1.6564C9.19758 1.41409 6.17681 1.41755 6.17681 1.41755C6.17681 1.41755 5.98784 1.41409 5.69451 1.41755H5.69169ZM26.0586 1.72909V9.09525H26.8427L26.9301 8.62102H26.9555C27.0401 8.79409 27.1558 8.92563 27.2968 9.02948C27.4378 9.13332 27.6014 9.16794 27.7707 9.16794C28.0809 9.16794 28.3319 8.99832 28.473 8.61755C28.614 8.23678 28.7014 7.68294 28.7014 6.9214V6.09063C28.7014 5.53678 28.6704 5.08678 28.614 4.74063C28.5576 4.43255 28.473 4.19025 28.3319 4.01717C28.1909 3.87871 28.0217 3.81294 27.796 3.81294C27.6296 3.81294 27.4632 3.87871 27.3222 3.98255C27.184 4.0864 27.0373 4.25948 26.9809 4.46717V1.73255H26.0558L26.0586 1.72909ZM11.9589 1.99909L13.0589 6.81063L13.1096 9.13332H14.0432V6.81063L15.1348 1.99909H14.1842L13.7894 4.18332C13.6766 4.83755 13.5891 5.28755 13.5609 5.56448H13.5355C13.4791 5.18371 13.3917 4.73371 13.3071 4.18332L12.9207 1.99909H11.9617H11.9589ZM20.3048 1.99909V2.93717H21.2637V9.13332H22.1889V2.93717H23.1478C23.1478 2.93717 23.1478 1.99909 23.1225 1.99909H20.3048ZM5.21784 3.7714L7.7281 5.56448L5.21784 7.3264V3.76794V3.7714ZM30.4332 3.80255C29.9537 3.80255 29.6181 4.00678 29.4207 4.35294C29.226 4.69563 29.1414 5.25294 29.1414 6.04909V6.94563C29.1414 7.70717 29.226 8.29563 29.4207 8.64178C29.6181 9.02255 29.9284 9.19217 30.4078 9.19217C30.8027 9.19217 31.0791 9.08832 31.3048 8.84602C31.5022 8.60371 31.6122 8.26102 31.6122 7.7764V7.60332L30.7943 7.53063C30.7943 7.87678 30.7717 8.08448 30.7153 8.22294C30.6871 8.3614 30.5743 8.43755 30.4332 8.43755C30.3486 8.43755 30.2612 8.39948 30.2048 8.33025C30.1484 8.2264 30.1201 8.12602 30.0919 7.95294C30.0637 7.77986 30.0666 7.53409 30.0666 7.18794V6.91794L31.6771 6.88679V5.97986C31.6771 5.42602 31.6489 5.01755 31.5643 4.70602C31.5078 4.39794 31.364 4.15563 31.1948 4.01717C30.9973 3.87871 30.7773 3.81294 30.4389 3.81294L30.4332 3.80255ZM16.1925 3.83371C15.885 3.83371 15.6255 3.89602 15.4281 4.06909C15.2307 4.20755 15.0896 4.45678 15.0078 4.80294C14.9232 5.14909 14.8668 5.58871 14.8668 6.14255V6.90755C14.8668 7.42678 14.895 7.86986 14.9796 8.21601C15.036 8.52755 15.1771 8.77678 15.3745 8.94986C15.5691 9.12294 15.8568 9.18525 16.1671 9.21986C16.5027 9.21986 16.7537 9.12294 16.9512 8.98448C17.1458 8.84602 17.2586 8.60717 17.3714 8.26102C17.4814 7.91486 17.5096 7.46486 17.5096 6.91102V6.14602C17.5096 5.59217 17.4532 5.15255 17.3714 4.8064C17.2868 4.49832 17.1458 4.24563 16.9512 4.07255C16.7537 3.89948 16.5055 3.83717 16.1953 3.83717L16.1925 3.83371ZM19.6278 3.86486V7.98409C19.5996 8.08794 19.546 8.15025 19.4614 8.21948C19.405 8.28871 19.3176 8.32678 19.233 8.32678C19.1484 8.32678 19.0694 8.29217 19.0412 8.18832C19.013 8.08448 18.9904 7.94601 18.9904 7.70371V3.89948H18.0314V7.77986C18.0314 8.26448 18.0822 8.60717 18.2232 8.84948C18.3614 9.09178 18.5645 9.19563 18.8466 9.19563C19.2414 9.19563 19.546 8.95678 19.7435 8.47217H19.7689L19.8563 9.08832H20.5868V3.89948C20.5868 3.89948 19.6278 3.89948 19.6278 3.86832V3.86486ZM24.5101 3.86486V7.98409C24.4819 8.08794 24.4284 8.15025 24.3437 8.21948C24.2873 8.28871 24.1999 8.32678 24.1153 8.32678C24.0307 8.32678 23.9517 8.29217 23.9235 8.18832C23.8953 8.08448 23.8643 7.94601 23.8643 7.70371V3.89948H22.9053V7.77986C22.9053 8.26448 22.9645 8.60717 23.1055 8.84948C23.2466 9.09178 23.4384 9.19563 23.7204 9.19563C24.1125 9.19563 24.4284 8.95678 24.6258 8.47217H24.6512L24.7301 9.08832H25.4691V3.89948C25.4691 3.89948 24.5101 3.89948 24.5101 3.86832V3.86486ZM30.405 4.58832C30.5178 4.58832 30.5686 4.6264 30.625 4.69563C30.6814 4.79948 30.7096 4.89986 30.7378 5.07294C30.766 5.24602 30.7632 5.49178 30.7632 5.83794V6.21525H30.0581V5.83794C30.0581 5.49178 30.0581 5.24602 30.0835 5.07294C30.0835 4.93448 30.1145 4.79602 30.1709 4.72678C30.2273 4.62294 30.3148 4.58832 30.3994 4.58832H30.405ZM16.1643 4.62986C16.3053 4.62986 16.3899 4.69217 16.4463 4.86525C16.4999 5.03832 16.5253 5.31525 16.5253 5.69602V7.31602C16.5253 7.69678 16.5027 7.97371 16.4463 8.14678C16.3899 8.31986 16.3053 8.38217 16.1643 8.38217C16.0232 8.38217 15.9414 8.31986 15.885 8.14678C15.8286 7.97371 15.7976 7.69678 15.7976 7.31602V5.69602C15.7976 5.31525 15.8286 5.03832 15.885 4.86525C15.9414 4.69217 16.0232 4.62986 16.1643 4.62986ZM27.356 4.66102C27.4407 4.66102 27.5281 4.69563 27.5845 4.79948C27.6409 4.90332 27.6607 5.0314 27.6889 5.27371C27.7171 5.4814 27.7227 5.7964 27.7227 6.21178L27.7481 6.86948C27.7481 7.25025 27.7481 7.55832 27.7227 7.76602C27.6945 7.97371 27.6691 8.13986 27.5845 8.20909C27.5281 8.31294 27.4435 8.34755 27.3307 8.34755C27.246 8.34755 27.1868 8.31986 27.1022 8.28525C27.0458 8.25063 26.9922 8.18486 26.9358 8.08102V5.13871C26.964 5.00025 27.0176 4.8964 27.1022 4.79255C27.1868 4.68871 27.2714 4.65409 27.356 4.65409V4.66102Z" fill="white" stroke="black" stroke-opacity="0.15" stroke-width="1.23077"/>
<path d="M5.69169 1.41755C4.80886 1.4314 2.96707 1.4764 2.39451 1.6564C1.97425 1.79486 1.66399 2.21025 1.55117 2.69486C1.35656 3.62948 1.35938 5.5714 1.35938 5.5714C1.35938 5.5714 1.35656 7.51332 1.55117 8.44794C1.66117 8.96717 1.99963 9.34794 2.39451 9.4864C3.15322 9.72871 6.17399 9.72178 6.17399 9.72178C6.17399 9.72178 9.19194 9.72525 9.95348 9.4864C10.3766 9.34794 10.684 8.93255 10.7968 8.44794C10.9914 7.51332 10.9886 5.5714 10.9886 5.5714C10.9886 5.5714 11.0196 3.62948 10.7968 2.69486C10.684 2.17563 10.3484 1.79486 9.95348 1.6564C9.19758 1.41409 6.17681 1.41755 6.17681 1.41755C6.17681 1.41755 5.98784 1.41409 5.69451 1.41755H5.69169ZM26.0586 1.72909V9.09525H26.8427L26.9301 8.62102H26.9555C27.0401 8.79409 27.1558 8.92563 27.2968 9.02948C27.4378 9.13332 27.6014 9.16794 27.7707 9.16794C28.0809 9.16794 28.3319 8.99832 28.473 8.61755C28.614 8.23678 28.7014 7.68294 28.7014 6.9214V6.09063C28.7014 5.53678 28.6704 5.08678 28.614 4.74063C28.5576 4.43255 28.473 4.19025 28.3319 4.01717C28.1909 3.87871 28.0217 3.81294 27.796 3.81294C27.6296 3.81294 27.4632 3.87871 27.3222 3.98255C27.184 4.0864 27.0373 4.25948 26.9809 4.46717V1.73255H26.0558L26.0586 1.72909ZM11.9589 1.99909L13.0589 6.81063L13.1096 9.13332H14.0432V6.81063L15.1348 1.99909H14.1842L13.7894 4.18332C13.6766 4.83755 13.5891 5.28755 13.5609 5.56448H13.5355C13.4791 5.18371 13.3917 4.73371 13.3071 4.18332L12.9207 1.99909H11.9617H11.9589ZM20.3048 1.99909V2.93717H21.2637V9.13332H22.1889V2.93717H23.1478C23.1478 2.93717 23.1478 1.99909 23.1225 1.99909H20.3048ZM5.21784 3.7714L7.7281 5.56448L5.21784 7.3264V3.76794V3.7714ZM30.4332 3.80255C29.9537 3.80255 29.6181 4.00678 29.4207 4.35294C29.226 4.69563 29.1414 5.25294 29.1414 6.04909V6.94563C29.1414 7.70717 29.226 8.29563 29.4207 8.64178C29.6181 9.02255 29.9284 9.19217 30.4078 9.19217C30.8027 9.19217 31.0791 9.08832 31.3048 8.84602C31.5022 8.60371 31.6122 8.26102 31.6122 7.7764V7.60332L30.7943 7.53063C30.7943 7.87678 30.7717 8.08448 30.7153 8.22294C30.6871 8.3614 30.5743 8.43755 30.4332 8.43755C30.3486 8.43755 30.2612 8.39948 30.2048 8.33025C30.1484 8.2264 30.1201 8.12602 30.0919 7.95294C30.0637 7.77986 30.0666 7.53409 30.0666 7.18794V6.91794L31.6771 6.88679V5.97986C31.6771 5.42602 31.6489 5.01755 31.5643 4.70602C31.5078 4.39794 31.364 4.15563 31.1948 4.01717C30.9973 3.87871 30.7773 3.81294 30.4389 3.81294L30.4332 3.80255ZM16.1925 3.83371C15.885 3.83371 15.6255 3.89602 15.4281 4.06909C15.2307 4.20755 15.0896 4.45678 15.0078 4.80294C14.9232 5.14909 14.8668 5.58871 14.8668 6.14255V6.90755C14.8668 7.42678 14.895 7.86986 14.9796 8.21601C15.036 8.52755 15.1771 8.77678 15.3745 8.94986C15.5691 9.12294 15.8568 9.18525 16.1671 9.21986C16.5027 9.21986 16.7537 9.12294 16.9512 8.98448C17.1458 8.84602 17.2586 8.60717 17.3714 8.26102C17.4814 7.91486 17.5096 7.46486 17.5096 6.91102V6.14602C17.5096 5.59217 17.4532 5.15255 17.3714 4.8064C17.2868 4.49832 17.1458 4.24563 16.9512 4.07255C16.7537 3.89948 16.5055 3.83717 16.1953 3.83717L16.1925 3.83371ZM19.6278 3.86486V7.98409C19.5996 8.08794 19.546 8.15025 19.4614 8.21948C19.405 8.28871 19.3176 8.32678 19.233 8.32678C19.1484 8.32678 19.0694 8.29217 19.0412 8.18832C19.013 8.08448 18.9904 7.94601 18.9904 7.70371V3.89948H18.0314V7.77986C18.0314 8.26448 18.0822 8.60717 18.2232 8.84948C18.3614 9.09178 18.5645 9.19563 18.8466 9.19563C19.2414 9.19563 19.546 8.95678 19.7435 8.47217H19.7689L19.8563 9.08832H20.5868V3.89948C20.5868 3.89948 19.6278 3.89948 19.6278 3.86832V3.86486ZM24.5101 3.86486V7.98409C24.4819 8.08794 24.4284 8.15025 24.3437 8.21948C24.2873 8.28871 24.1999 8.32678 24.1153 8.32678C24.0307 8.32678 23.9517 8.29217 23.9235 8.18832C23.8953 8.08448 23.8643 7.94601 23.8643 7.70371V3.89948H22.9053V7.77986C22.9053 8.26448 22.9645 8.60717 23.1055 8.84948C23.2466 9.09178 23.4384 9.19563 23.7204 9.19563C24.1125 9.19563 24.4284 8.95678 24.6258 8.47217H24.6512L24.7301 9.08832H25.4691V3.89948C25.4691 3.89948 24.5101 3.89948 24.5101 3.86832V3.86486ZM30.405 4.58832C30.5178 4.58832 30.5686 4.6264 30.625 4.69563C30.6814 4.79948 30.7096 4.89986 30.7378 5.07294C30.766 5.24602 30.7632 5.49178 30.7632 5.83794V6.21525H30.0581V5.83794C30.0581 5.49178 30.0581 5.24602 30.0835 5.07294C30.0835 4.93448 30.1145 4.79602 30.1709 4.72678C30.2273 4.62294 30.3148 4.58832 30.3994 4.58832H30.405ZM16.1643 4.62986C16.3053 4.62986 16.3899 4.69217 16.4463 4.86525C16.4999 5.03832 16.5253 5.31525 16.5253 5.69602V7.31602C16.5253 7.69678 16.5027 7.97371 16.4463 8.14678C16.3899 8.31986 16.3053 8.38217 16.1643 8.38217C16.0232 8.38217 15.9414 8.31986 15.885 8.14678C15.8286 7.97371 15.7976 7.69678 15.7976 7.31602V5.69602C15.7976 5.31525 15.8286 5.03832 15.885 4.86525C15.9414 4.69217 16.0232 4.62986 16.1643 4.62986ZM27.356 4.66102C27.4407 4.66102 27.5281 4.69563 27.5845 4.79948C27.6409 4.90332 27.6607 5.0314 27.6889 5.27371C27.7171 5.4814 27.7227 5.7964 27.7227 6.21178L27.7481 6.86948C27.7481 7.25025 27.7481 7.55832 27.7227 7.76602C27.6945 7.97371 27.6691 8.13986 27.5845 8.20909C27.5281 8.31294 27.4435 8.34755 27.3307 8.34755C27.246 8.34755 27.1868 8.31986 27.1022 8.28525C27.0458 8.25063 26.9922 8.18486 26.9358 8.08102V5.13871C26.964 5.00025 27.0176 4.8964 27.1022 4.79255C27.1868 4.68871 27.2714 4.65409 27.356 4.65409V4.66102Z" fill="white"/>
</svg>
