<svg width="32" height="32" viewBox="0 0 32 32" fill="none" xmlns="http://www.w3.org/2000/svg">
<path d="M22.7098 3.29183C22.8029 3.38473 22.8768 3.49508 22.9272 3.61657C22.9776 3.73806 23.0036 3.8683 23.0036 3.99983C23.0036 4.13137 22.9776 4.26161 22.9272 4.3831C22.8768 4.50459 22.8029 4.61494 22.7098 4.70783L11.4158 15.9998L22.7098 27.2918C22.8976 27.4796 23.003 27.7343 23.003 27.9998C23.003 28.2654 22.8976 28.5201 22.7098 28.7078C22.522 28.8956 22.2673 29.0011 22.0018 29.0011C21.7362 29.0011 21.4816 28.8956 21.2938 28.7078L9.29379 16.7078C9.20066 16.6149 9.12677 16.5046 9.07636 16.3831C9.02595 16.2616 9 16.1314 9 15.9998C9 15.8683 9.02595 15.7381 9.07636 15.6166C9.12677 15.4951 9.20066 15.3847 9.29379 15.2918L21.2938 3.29183C21.3867 3.19871 21.497 3.12482 21.6185 3.07441C21.74 3.024 21.8703 2.99805 22.0018 2.99805C22.1333 2.99805 22.2636 3.024 22.3851 3.07441C22.5065 3.12482 22.6169 3.19871 22.7098 3.29183Z" fill="white"/>
</svg>
