<svg width="16" height="18" viewBox="0 0 16 18" fill="none" xmlns="http://www.w3.org/2000/svg">
<path d="M8.97646 7.09414V4.86914L12.4387 8.76414L8.97646 12.6591V10.3791C7.22979 10.3441 5.37646 10.9041 4.14979 12.3791C3.90979 12.5641 3.37646 13.6441 3.60757 12.8241C4.03424 10.6591 5.24313 8.58914 7.1009 7.68914C7.69202 7.38914 8.32757 7.19914 8.97202 7.09414H8.97646Z" fill="white" stroke="black" stroke-opacity="0.15" stroke-width="2"/>
<path d="M8.97646 7.09414V4.86914L12.4387 8.76414L8.97646 12.6591V10.3791C7.22979 10.3441 5.37646 10.9041 4.14979 12.3791C3.90979 12.5641 3.37646 13.6441 3.60757 12.8241C4.03424 10.6591 5.24313 8.58914 7.1009 7.68914C7.69202 7.38914 8.32757 7.19914 8.97202 7.09414H8.97646Z" fill="white"/>
</svg>
