<svg width="22" height="25" viewBox="0 0 22 25" fill="none" xmlns="http://www.w3.org/2000/svg">
<path d="M13.0201 14.2656C13.0201 14.2656 13.1108 14.1529 13.2921 13.9273C13.4735 13.7018 13.6246 13.589 13.7455 13.589C13.8664 13.589 14.3198 13.7936 15.1057 14.2028C15.8916 14.6121 16.3078 14.8585 16.3544 14.9422C16.373 14.9887 16.3823 15.0585 16.3823 15.1515C16.3823 15.4584 16.3032 15.8118 16.1451 16.2118C15.9963 16.5745 15.6661 16.8791 15.1546 17.1256C14.643 17.372 14.1687 17.4953 13.7316 17.4953C13.2015 17.4953 12.3179 17.2069 11.0809 16.6303C10.1695 16.2118 9.37891 15.663 8.70926 14.9841C8.03962 14.3052 7.35138 13.4448 6.64453 12.4032C5.97489 11.408 5.64472 10.5059 5.65402 9.69671V9.5851C5.68192 8.73875 6.02604 8.004 6.68638 7.38086C6.9096 7.17625 7.15141 7.07394 7.41183 7.07394C7.46763 7.07394 7.55134 7.08092 7.66295 7.09487C7.77455 7.10882 7.86291 7.11579 7.92801 7.11579C8.10472 7.11579 8.22796 7.14602 8.29771 7.20647C8.36747 7.26693 8.43955 7.39481 8.51395 7.59012C8.58836 7.77613 8.74182 8.18536 8.97433 8.8178C9.20685 9.45024 9.3231 9.79901 9.3231 9.86412C9.3231 10.0594 9.16267 10.3268 8.8418 10.6663C8.52093 11.0058 8.36049 11.222 8.36049 11.315C8.36049 11.3801 8.38374 11.4499 8.43025 11.5243C8.74647 12.2032 9.2208 12.8403 9.85324 13.4355C10.3741 13.9285 11.0763 14.3982 11.9598 14.8446C12.0714 14.9097 12.1737 14.9422 12.2667 14.9422C12.4062 14.9422 12.6574 14.7167 13.0201 14.2656ZM10.9135 20.983C12.0947 20.983 13.227 20.7505 14.3105 20.2854C15.3941 19.8204 16.3265 19.1973 17.1077 18.416C17.889 17.6348 18.5121 16.7024 18.9771 15.6189C19.4422 14.5353 19.6747 13.403 19.6747 12.2218C19.6747 11.0406 19.4422 9.9083 18.9771 8.82478C18.5121 7.74126 17.889 6.80887 17.1077 6.02762C16.3265 5.24637 15.3941 4.62323 14.3105 4.1582C13.227 3.69317 12.0947 3.46066 10.9135 3.46066C9.73233 3.46066 8.59998 3.69317 7.51646 4.1582C6.43294 4.62323 5.50056 5.24637 4.71931 6.02762C3.93806 6.80887 3.31492 7.74126 2.84989 8.82478C2.38486 9.9083 2.15234 11.0406 2.15234 12.2218C2.15234 14.1098 2.71038 15.8211 3.82645 17.3557L2.72433 20.6063L6.10045 19.5321C7.56994 20.4993 9.17429 20.983 10.9135 20.983ZM6.83287 2.5399C6.83287 2.5399 7.15723 2.40039 7.80594 2.12137C8.45466 1.84236 9.49051 1.70285 10.9135 1.70285C12.3365 1.70285 13.6967 1.98186 14.9941 2.5399C16.2916 3.09793 17.41 3.84663 18.3493 4.78599C19.2887 5.72535 20.0374 6.84375 20.5954 8.14118C21.1535 9.43862 21.4325 10.7988 21.4325 12.2218C21.4325 13.6448 21.1535 15.005 20.5954 16.3025C20.0374 17.5999 19.2887 18.7183 18.3493 19.6576C17.41 20.597 16.2916 21.3457 14.9941 21.9037C13.6967 22.4618 12.3365 22.7408 10.9135 22.7408C9.09989 22.7408 7.40253 22.3037 5.82143 21.4294L0.00390625 23.2988L1.90123 17.6487C0.896763 15.9932 0.394531 14.1842 0.394531 12.2218C0.394531 10.7988 0.673549 9.43862 1.23158 8.14118C1.78962 6.84375 2.53832 5.72535 3.47768 4.78599C4.41704 3.84663 5.53544 3.09793 6.83287 2.5399Z" fill="white"/>
</svg>
