<svg width="128" height="43" viewBox="0 0 128 43" fill="none" xmlns="http://www.w3.org/2000/svg">
<g clip-path="url(#clip0_21_4159)">
<path d="M117.735 0H8.02011C7.27157 0 6.62996 0.106935 5.88141 0.21387C5.2398 0.320804 4.49126 0.534674 3.84965 0.855478C3.20804 1.17628 2.67337 1.60402 2.1387 2.1387C1.60402 2.67337 1.17628 3.20804 0.855478 3.84965C0.534674 4.49126 0.320804 5.2398 0.21387 5.88141C0.106935 6.62996 0 7.3785 0 8.02011V34.6469C0 35.3954 0.106935 36.037 0.21387 36.7856C0.320804 37.5341 0.534674 38.1757 0.855478 38.8173C1.17628 39.5659 1.60402 40.1005 2.1387 40.6352C2.67337 41.1699 3.20804 41.5976 3.84965 41.9184C4.49126 42.2392 5.13287 42.4531 5.88141 42.56C6.62996 42.667 7.27157 42.7739 8.02011 42.7739H119.874C120.622 42.7739 121.264 42.667 122.013 42.56C122.761 42.4531 123.403 42.2392 124.044 41.9184C124.686 41.5976 125.221 41.1699 125.755 40.6352C126.29 40.1005 126.718 39.5659 127.039 38.9243C127.359 38.2827 127.573 37.641 127.68 36.8925C127.787 36.144 127.894 35.5024 127.894 34.7538V33.7914V10.1588V8.98252V8.02011C127.894 7.27157 127.787 6.62996 127.68 5.88141C127.573 5.13287 127.359 4.49126 127.039 3.84965C126.397 2.56643 125.328 1.49709 124.044 0.855478C123.403 0.534674 122.761 0.320804 122.013 0.21387C121.264 0.106935 120.622 0 119.874 0L117.735 0Z" fill="#A6A6A6"/>
<path d="M8.98259 41.8121H8.02018C7.37857 41.8121 6.63003 41.7051 5.98842 41.5982C5.34681 41.4913 4.81213 41.2774 4.17053 41.0635C3.63585 40.7427 3.10118 40.4219 2.67344 39.9942C2.2457 39.5664 1.81796 39.0318 1.60409 38.4971C1.28329 37.9624 1.17635 37.3208 1.06942 36.6792C0.962482 36.0376 0.855547 35.396 0.855547 34.6474V8.98309V8.02067C0.855547 7.37907 0.962482 6.63052 1.06942 5.98891C1.17635 5.45424 1.39022 4.81263 1.71103 4.27796C2.03183 3.74328 2.35263 3.20861 2.78037 2.78087C3.20811 2.35313 3.74279 2.03233 4.27746 1.71152C4.81213 1.39072 5.45374 1.28378 6.09535 1.17685C6.73696 1.06991 7.37857 0.962979 8.12711 0.962979H119.981C120.623 0.962979 121.264 1.06991 122.013 1.17685C122.654 1.28378 123.189 1.49765 123.831 1.71152C124.9 2.2462 125.862 3.20861 126.397 4.27796C126.718 4.81263 126.825 5.45424 126.932 5.98891C127.039 6.63052 127.146 7.37907 127.146 8.02067V34.6474C127.146 35.289 127.039 35.9307 126.932 36.6792C126.825 37.3208 126.611 37.8555 126.397 38.4971C126.076 39.0318 125.755 39.5664 125.328 39.9942C124.9 40.4219 124.365 40.8497 123.831 41.0635C123.296 41.3843 122.654 41.5982 122.013 41.5982C121.371 41.7051 120.729 41.8121 119.981 41.8121H8.98259Z" fill="black"/>
<path d="M26.5188 21.708C26.5188 19.8901 27.4812 18.1792 29.0853 17.2168C28.1229 15.8266 26.5188 14.9711 24.8079 14.8642C22.99 14.6503 21.279 15.9335 20.3166 15.9335C19.3542 15.9335 17.964 14.8642 16.467 14.8642C14.4352 14.9711 12.6173 16.0405 11.6549 17.7514C9.62313 21.2803 11.1202 26.627 13.152 29.5143C14.1144 30.9044 15.2907 32.5084 16.7878 32.5084C18.2849 32.4015 18.8195 31.546 20.6374 31.546C22.4553 31.546 22.883 32.5084 24.4871 32.5084C26.0911 32.5084 27.0535 31.1183 28.0159 29.6212C28.7645 28.6588 29.2991 27.4825 29.6199 26.3062C27.6951 25.6646 26.5188 23.7398 26.5188 21.708ZM23.5247 13.0463C24.3801 11.977 24.8079 10.6937 24.7009 9.30359C23.4177 9.41052 22.1345 10.0521 21.279 11.1215C20.4235 12.0839 19.9958 13.3671 20.1027 14.7573C21.4929 14.7573 22.6692 14.1157 23.5247 13.0463ZM45.2324 28.9796H40.2065L39.0302 32.6154H36.8915L41.7036 19.3555H43.8423L48.6543 32.6154H46.5156L45.2324 28.9796ZM40.7412 27.3756H44.8047L42.7729 21.4942H42.666L40.7412 27.3756ZM59.027 27.8033C59.027 30.7975 57.423 32.7223 54.9635 32.7223C53.6803 32.8292 52.504 32.0807 51.9693 31.0113V35.8234H49.9376V22.9912H51.8624V24.5953C52.504 23.5259 53.6803 22.8843 54.9635 22.8843C57.3161 22.7774 59.027 24.8091 59.027 27.8033ZM56.8883 27.8033C56.8883 25.8785 55.9259 24.5953 54.3219 24.5953C52.8248 24.5953 51.7554 25.8785 51.7554 27.8033C51.7554 29.7281 52.8248 31.0113 54.3219 31.0113C55.9259 31.0113 56.8883 29.7281 56.8883 27.8033ZM69.6136 27.8033C69.6136 30.7975 68.0095 32.7223 65.55 32.7223C64.2668 32.8292 63.0905 32.0807 62.5559 31.0113V35.8234H60.5241V22.9912H62.4489V24.5953C63.0905 23.5259 64.2668 22.8843 65.55 22.8843C68.0095 22.7774 69.6136 24.8091 69.6136 27.8033ZM67.5818 27.8033C67.5818 25.8785 66.6194 24.5953 65.0154 24.5953C63.5183 24.5953 62.4489 25.8785 62.4489 27.8033C62.4489 29.7281 63.5183 31.0113 65.0154 31.0113C66.6194 31.0113 67.5818 29.7281 67.5818 27.8033ZM76.6712 28.8727C76.7782 30.1559 78.0614 31.0113 79.8793 31.0113C81.5903 31.0113 82.7665 30.1559 82.7665 28.9796C82.7665 27.9102 82.018 27.3756 80.307 26.9478L78.5961 26.5201C76.1366 25.9854 75.0672 24.8091 75.0672 22.9912C75.0672 20.7456 77.099 19.1416 79.8793 19.1416C82.6596 19.1416 84.5844 20.7456 84.6914 22.9912H82.6596C82.5527 21.708 81.4833 20.8525 79.8793 20.8525C78.2753 20.8525 77.2059 21.708 77.2059 22.8843C77.2059 23.8467 77.9545 24.3814 79.6654 24.8091L81.1625 25.1299C83.8359 25.7715 85.0122 26.8409 85.0122 28.7657C85.0122 31.2252 83.0873 32.8292 79.8793 32.8292C76.8851 32.8292 74.9603 31.3322 74.8534 28.8727H76.6712ZM89.0757 20.6387V22.8843H90.8936V24.4883H89.0757V29.8351C89.0757 30.6905 89.3965 31.0113 90.252 31.0113H90.8936V32.6154C90.5728 32.7223 90.145 32.7223 89.8242 32.7223C87.8994 32.7223 87.1509 31.9738 87.1509 30.1559V24.5953H85.7607V22.9912H87.1509V20.7456H89.0757V20.6387ZM92.0699 27.8033C92.0699 24.8091 93.8878 22.8843 96.6681 22.8843C99.4484 22.8843 101.266 24.8091 101.266 27.8033C101.266 30.9044 99.4484 32.7223 96.6681 32.7223C93.7808 32.7223 92.0699 30.7975 92.0699 27.8033ZM99.2345 27.8033C99.2345 25.6646 98.2721 24.4883 96.6681 24.4883C95.064 24.4883 94.1016 25.6646 94.1016 27.8033C94.1016 29.942 95.064 31.1183 96.6681 31.1183C98.2721 31.1183 99.2345 29.8351 99.2345 27.8033ZM102.87 22.8843H104.795V24.5953C105.009 23.5259 106.078 22.7774 107.148 22.8843C107.362 22.8843 107.575 22.8843 107.789 22.9912V24.8091C107.468 24.7022 107.148 24.7022 106.934 24.7022C105.864 24.7022 104.902 25.5577 104.902 26.627V32.7223H102.87V22.8843ZM116.986 29.7281C116.772 31.4391 115.061 32.7223 112.815 32.7223C110.035 32.7223 108.217 30.7975 108.217 27.8033C108.217 24.8091 109.928 22.7774 112.708 22.7774C115.382 22.7774 117.093 24.5953 117.093 27.5894V28.231H110.249V28.338C110.142 29.7281 111.104 30.9044 112.494 31.1183H112.815C113.778 31.2252 114.74 30.6905 115.061 29.7281H116.986ZM110.249 26.8409H115.061C115.168 25.5577 114.098 24.4883 112.815 24.3814H112.601C111.318 24.3814 110.249 25.4507 110.249 26.8409Z" fill="white"/>
<path d="M40.4225 9.30405C42.0265 9.19711 43.3097 10.3734 43.4166 11.8705V12.4052C43.4166 14.4369 42.3473 15.6132 40.4225 15.6132H38.0699V9.19711L40.4225 9.30405ZM39.1392 14.8647H40.3155C41.3849 14.9716 42.3473 14.1161 42.4542 12.9398V12.5121C42.5612 11.4427 41.8126 10.3734 40.7433 10.2665H39.1392V14.8647ZM44.5929 13.2606C44.486 11.9774 45.4484 10.9081 46.6247 10.8011C47.9079 10.6942 48.9772 11.6566 49.0842 12.8329V13.2606C49.1911 14.5439 48.3356 15.6132 47.0524 15.7201C45.7692 15.8271 44.6999 14.9716 44.5929 13.6884V13.2606ZM48.1218 13.2606C48.1218 12.1913 47.694 11.6566 46.8385 11.6566C45.9831 11.6566 45.5553 12.2982 45.5553 13.2606C45.5553 14.33 45.9831 14.9716 46.8385 14.9716C47.694 14.9716 48.1218 14.33 48.1218 13.2606ZM55.1795 15.7201H54.217L53.2546 12.1913H53.1477L52.1853 15.7201H51.2229L49.9397 10.9081H50.9021L51.7575 14.5439H51.8645L52.8269 10.9081H53.7893L54.7517 14.5439H54.8587L55.7141 10.9081H56.6765L55.1795 15.7201ZM57.639 10.9081H58.6014V11.6566H58.7083C58.9222 11.1219 59.5638 10.8011 60.0985 10.8011C60.9539 10.6942 61.7025 11.3358 61.8094 12.2982V15.7201H60.847V12.8329C60.847 12.0844 60.5262 11.6566 59.7777 11.6566C59.136 11.6566 58.6014 12.0844 58.6014 12.726V15.7201H57.639V10.9081ZM63.1996 8.98324H64.162V15.7201H63.1996V8.98324ZM65.4452 13.2606C65.3383 11.9774 66.1937 10.9081 67.477 10.8011C68.7602 10.6942 69.8295 11.5497 69.9365 12.8329V13.2606C70.0434 14.5439 69.1879 15.6132 67.9047 15.7201C66.6215 15.8271 65.5521 14.9716 65.4452 13.6884V13.2606ZM69.081 13.2606C69.081 12.1913 68.6532 11.6566 67.7978 11.6566C66.9423 11.6566 66.5145 12.2982 66.5145 13.2606C66.5145 14.33 66.9423 14.9716 67.7978 14.9716C68.5463 14.9716 69.081 14.33 69.081 13.2606ZM71.0058 14.33C71.0058 13.4745 71.6474 12.9398 72.8237 12.9398L74.1069 12.8329V12.4052C74.1069 11.8705 73.7861 11.6566 73.1445 11.6566C72.6098 11.6566 72.289 11.8705 72.1821 12.1913H71.2197C71.3266 11.3358 72.0752 10.8011 73.1445 10.8011C74.3208 10.8011 75.0693 11.4427 75.0693 12.4052V15.7201H74.1069V15.0785H74C73.6792 15.6132 73.1445 15.8271 72.5029 15.8271C71.7544 15.934 71.0058 15.2924 70.8989 14.5439C71.0058 14.4369 71.0058 14.4369 71.0058 14.33ZM74.1069 13.9022V13.4745L72.9306 13.5814C72.289 13.5814 71.9682 13.9022 71.9682 14.2231C71.9682 14.6508 72.396 14.8647 72.8237 14.8647C73.4653 15.0785 74 14.6508 74.1069 13.9022C74.1069 14.0092 74.1069 14.0092 74.1069 13.9022ZM76.2456 13.2606C76.2456 11.7635 76.9942 10.8011 78.2774 10.8011C78.919 10.8011 79.4537 11.1219 79.7745 11.6566H79.8814V8.98324H80.8438V15.7201H79.8814V14.9716H79.7745C79.4537 15.5063 78.919 15.8271 78.2774 15.8271C77.1011 15.8271 76.2456 14.8647 76.2456 13.2606ZM77.315 13.2606C77.315 14.33 77.7427 14.8647 78.5982 14.8647C79.4537 14.8647 79.8814 14.223 79.8814 13.2606C79.8814 12.2982 79.3467 11.6566 78.5982 11.6566C77.7427 11.6566 77.315 12.2982 77.315 13.2606ZM84.6935 13.2606C84.5865 11.9774 85.442 10.9081 86.7252 10.8011C88.0084 10.6942 89.0778 11.5497 89.1847 12.8329V13.2606C89.2917 14.5439 88.4362 15.6132 87.153 15.7201C85.8697 15.8271 84.8004 14.9716 84.6935 13.6884V13.2606ZM88.3292 13.2606C88.3292 12.1913 87.9015 11.6566 87.046 11.6566C86.1906 11.6566 85.7628 12.2982 85.7628 13.2606C85.7628 14.33 86.1906 14.9716 87.046 14.9716C87.7946 14.9716 88.3292 14.33 88.3292 13.2606ZM90.5749 10.9081H91.5373V11.6566H91.6442C91.8581 11.1219 92.4997 10.8011 93.0344 10.8011C93.8899 10.6942 94.6384 11.3358 94.7453 12.2982V15.7201H93.7829V12.8329C93.7829 12.0844 93.4621 11.6566 92.7136 11.6566C92.072 11.6566 91.5373 12.0844 91.5373 12.726V15.7201H90.5749V10.9081ZM99.9851 9.73179V10.9081H101.054V11.7635H99.9851V14.2231C99.9851 14.7577 100.199 14.9716 100.627 14.9716H100.948V15.7201H100.413C99.3435 15.7201 98.9158 15.3993 98.9158 14.4369V11.7635H98.1672V11.015H98.9158V9.73179H99.9851ZM102.338 8.98324H103.3V11.6566H103.407C103.621 11.1219 104.263 10.6942 104.904 10.8011C105.76 10.8011 106.508 11.4427 106.615 12.2982V15.7201H105.653V12.8329C105.653 12.0844 105.332 11.6566 104.583 11.6566C103.942 11.6566 103.407 12.0844 103.407 12.726V15.7201H102.445V8.98324H102.338ZM112.069 14.4369C111.855 15.2924 110.892 15.934 110.037 15.8271C108.861 15.8271 107.791 14.8647 107.791 13.6884V13.3676C107.578 12.1913 108.433 11.015 109.716 10.9081H110.037C111.427 10.9081 112.176 11.8705 112.176 13.3676V13.6884H108.754V13.7953C108.647 14.5439 109.182 15.0785 109.93 15.1855H110.037C110.465 15.2924 110.999 14.9716 111.213 14.6508H112.069V14.4369ZM108.647 12.8329H111.106C111.106 12.1913 110.679 11.6566 110.037 11.5497H109.93C109.288 11.6566 108.647 12.1913 108.647 12.8329Z" fill="white"/>
</g>
<defs>
<clipPath id="clip0_21_4159">
<rect width="127.989" height="42.77" fill="white"/>
</clipPath>
</defs>
</svg>
