<svg width="15" height="16" viewBox="0 0 15 16" fill="none" xmlns="http://www.w3.org/2000/svg">
<g clip-path="url(#clip0_21_3934)">
<path d="M14.6682 7.51339H13.6482V7.36672C13.5081 6.05081 12.9217 4.82253 11.9865 3.88618C11.0514 2.94983 9.8239 2.36185 8.50817 2.22005H8.36151V0.886719L7.36151 1.22005V2.20005H7.21484C5.89681 2.33676 4.66532 2.92068 3.7253 3.85463C2.78528 4.78859 2.19341 6.01626 2.04817 7.33339V7.48005H0.714844L1.05484 8.48005H2.06817V8.62672C2.20234 9.94191 2.78177 11.1718 3.7105 12.1127C4.63922 13.0535 5.8615 13.6488 7.17484 13.8001H7.32151V15.1334L8.32151 14.8334V13.8201H8.46817C9.78925 13.6825 11.0231 13.0957 11.9635 12.1577C12.9039 11.2198 13.4939 9.98744 13.6348 8.66672V8.52005H14.9682L14.6682 7.51339ZM11.2548 11.4267C10.8086 11.8782 10.277 12.2363 9.69101 12.4801C9.10497 12.7239 8.47624 12.8485 7.84151 12.8467H7.67484C6.56776 12.8068 5.50823 12.3868 4.67453 11.6573C3.84083 10.9278 3.28386 9.93336 3.09734 8.84138C2.91083 7.7494 3.10615 6.6265 3.65044 5.66164C4.19473 4.69678 5.05477 3.94886 6.08583 3.54373C7.11689 3.1386 8.25603 3.101 9.31156 3.43725C10.3671 3.7735 11.2746 4.46308 11.8813 5.38995C12.488 6.31682 12.757 7.42439 12.6429 8.5263C12.5288 9.6282 12.0386 10.6572 11.2548 11.4401V11.4267Z" fill="#707070"/>
</g>
<defs>
<clipPath id="clip0_21_3934">
<rect width="15" height="16" fill="white"/>
</clipPath>
</defs>
</svg>
