<svg width="7" height="8" viewBox="0 0 7 8" fill="none" xmlns="http://www.w3.org/2000/svg">
<g filter="url(#filter0_d_21_4257)">
<path d="M4.08808 5.15508V3.31551C4.08808 3.17766 4.06552 3.05882 4.02041 2.959C3.9753 2.85918 3.90655 2.78194 3.81418 2.72727C3.72395 2.67261 3.6101 2.64528 3.47261 2.64528C3.34586 2.64528 3.2363 2.66904 3.14393 2.71658C3.05156 2.76411 2.97959 2.82828 2.92803 2.90909C2.87648 2.9899 2.8507 3.0814 2.8507 3.1836H2.07734C2.07734 3.03149 2.11063 2.88414 2.17723 2.74153C2.24382 2.59893 2.34049 2.47178 2.46724 2.36007C2.59398 2.24837 2.74543 2.16043 2.92159 2.09626C3.09774 2.03209 3.29538 2 3.5145 2C3.77658 2 4.00859 2.04872 4.21053 2.14617C4.41461 2.24361 4.57465 2.39097 4.69066 2.58824C4.80881 2.78313 4.86788 3.02793 4.86788 3.32264V5.03743C4.86788 5.21331 4.87863 5.37136 4.90011 5.51159C4.92374 5.64944 4.95704 5.76946 5 5.87166V5.9287H4.20408C4.16756 5.83601 4.13856 5.71836 4.11708 5.57576C4.09774 5.43078 4.08808 5.29055 4.08808 5.15508ZM4.20086 3.58289L4.2073 4.11408H3.64984C3.50591 4.11408 3.37916 4.12953 3.2696 4.16043C3.16004 4.18895 3.06874 4.23173 2.9957 4.28877C2.92266 4.34581 2.86788 4.41474 2.83136 4.49554C2.79484 4.57635 2.77658 4.66786 2.77658 4.77005C2.77658 4.87225 2.79807 4.96613 2.84103 5.05169C2.884 5.13488 2.94629 5.20024 3.02793 5.24777C3.11171 5.29531 3.21267 5.31907 3.33083 5.31907C3.4898 5.31907 3.62836 5.28342 3.74651 5.21212C3.86681 5.13844 3.96133 5.04932 4.03008 4.94474C4.09882 4.83779 4.13534 4.73678 4.13963 4.64171L4.39098 5.02317C4.3652 5.12062 4.32116 5.22519 4.25886 5.3369C4.19656 5.4486 4.11493 5.55556 4.01396 5.65775C3.91514 5.75758 3.79592 5.83957 3.65628 5.90374C3.5188 5.96791 3.35983 6 3.17938 6C2.95166 6 2.74866 5.95009 2.57035 5.85027C2.39205 5.74807 2.25242 5.61141 2.15145 5.44029C2.05048 5.26679 2 5.07071 2 4.85205C2 4.64765 2.03437 4.46702 2.10311 4.31016C2.17401 4.15092 2.27712 4.01783 2.41246 3.91087C2.54995 3.80392 2.71751 3.72311 2.91514 3.66845C3.11278 3.61141 3.33835 3.58289 3.59184 3.58289H4.20086Z" fill="#EEEEEE"/>
</g>
<defs>
<filter id="filter0_d_21_4257" x="0" y="0" width="7" height="8" filterUnits="userSpaceOnUse" color-interpolation-filters="sRGB">
<feFlood flood-opacity="0" result="BackgroundImageFix"/>
<feColorMatrix in="SourceAlpha" type="matrix" values="0 0 0 0 0 0 0 0 0 0 0 0 0 0 0 0 0 0 127 0" result="hardAlpha"/>
<feOffset/>
<feGaussianBlur stdDeviation="1"/>
<feComposite in2="hardAlpha" operator="out"/>
<feColorMatrix type="matrix" values="0 0 0 0 0 0 0 0 0 0 0 0 0 0 0 0 0 0 0.5 0"/>
<feBlend mode="normal" in2="BackgroundImageFix" result="effect1_dropShadow_21_4257"/>
<feBlend mode="normal" in="SourceGraphic" in2="effect1_dropShadow_21_4257" result="shape"/>
</filter>
</defs>
</svg>
