<svg width="7" height="11" viewBox="0 0 7 11" fill="none" xmlns="http://www.w3.org/2000/svg">
<g filter="url(#filter0_d_21_4199)">
<path d="M2 2H2.60851V7.9653L2.55616 8.91003H2V2ZM5 6.43573V6.53021C5 6.8841 4.96947 7.21251 4.9084 7.51542C4.84733 7.81534 4.75791 8.07626 4.64013 8.2982C4.52236 8.52014 4.37841 8.69259 4.20829 8.81555C4.03817 8.93852 3.84297 9 3.62268 9C3.39804 9 3.20065 8.94752 3.03053 8.84255C2.8626 8.73458 2.72083 8.58012 2.60523 8.37918C2.48964 8.17823 2.39695 7.9353 2.32715 7.65039C2.25954 7.36547 2.21265 7.04456 2.18648 6.68766V6.27378C2.21265 5.91388 2.25954 5.59147 2.32715 5.30656C2.39695 5.02164 2.48964 4.77871 2.60523 4.57776C2.72083 4.37382 2.8626 4.21937 3.03053 4.1144C3.19847 4.00643 3.39368 3.95244 3.61614 3.95244C3.8386 3.95244 4.03599 4.01242 4.20829 4.13239C4.38059 4.24936 4.52454 4.41731 4.64013 4.63625C4.75791 4.85518 4.84733 5.11761 4.9084 5.42352C4.96947 5.72644 5 6.06384 5 6.43573ZM4.39149 6.53021V6.43573C4.39149 6.1928 4.37514 5.96487 4.34242 5.75193C4.30971 5.53599 4.25736 5.34704 4.18539 5.18509C4.11341 5.02014 4.01854 4.89117 3.90076 4.7982C3.78299 4.70223 3.63795 4.65424 3.46565 4.65424C3.31298 4.65424 3.17993 4.69023 3.06652 4.76221C2.95529 4.83419 2.86041 4.93166 2.7819 5.05463C2.70338 5.17459 2.63904 5.31255 2.58888 5.46851C2.54089 5.62147 2.50491 5.78042 2.48092 5.94537V7.02956C2.51581 7.2395 2.57252 7.44195 2.65104 7.63689C2.73173 7.82883 2.8386 7.98629 2.97165 8.10925C3.10687 8.23222 3.27372 8.2937 3.47219 8.2937C3.63577 8.2937 3.77535 8.24871 3.89095 8.15874C4.00872 8.06577 4.1036 7.9383 4.17557 7.77635C4.24973 7.6144 4.30425 7.42695 4.33915 7.21401C4.37405 7.00107 4.39149 6.77314 4.39149 6.53021Z" fill="#EEEEEE"/>
</g>
<defs>
<filter id="filter0_d_21_4199" x="0" y="0" width="7" height="11" filterUnits="userSpaceOnUse" color-interpolation-filters="sRGB">
<feFlood flood-opacity="0" result="BackgroundImageFix"/>
<feColorMatrix in="SourceAlpha" type="matrix" values="0 0 0 0 0 0 0 0 0 0 0 0 0 0 0 0 0 0 127 0" result="hardAlpha"/>
<feOffset/>
<feGaussianBlur stdDeviation="1"/>
<feComposite in2="hardAlpha" operator="out"/>
<feColorMatrix type="matrix" values="0 0 0 0 0 0 0 0 0 0 0 0 0 0 0 0 0 0 0.5 0"/>
<feBlend mode="normal" in2="BackgroundImageFix" result="effect1_dropShadow_21_4199"/>
<feBlend mode="normal" in="SourceGraphic" in2="effect1_dropShadow_21_4199" result="shape"/>
</filter>
</defs>
</svg>
