<svg width="4" height="5" viewBox="0 0 4 5" fill="none" xmlns="http://www.w3.org/2000/svg">
<path d="M1.07589 1.13884V5H0V0.0907441H1.01339L1.07589 1.13884ZM0.883929 2.36388L0.535714 2.35935C0.538691 2.01149 0.58631 1.69238 0.678571 1.402C0.77381 1.11162 0.904762 0.862069 1.07143 0.653358C1.24107 0.444646 1.44345 0.284332 1.67857 0.172414C1.91369 0.0574713 2.1756 0 2.46429 0C2.69643 0 2.90625 0.0332728 3.09375 0.0998185C3.28423 0.163339 3.44643 0.267695 3.58036 0.412886C3.71726 0.558076 3.82143 0.747126 3.89286 0.980036C3.96429 1.20992 4 1.49274 4 1.82849V5H2.91964V1.82396C2.91964 1.58802 2.88542 1.402 2.81696 1.26588C2.75149 1.12674 2.65476 1.02843 2.52679 0.970962C2.40179 0.910466 2.24554 0.880218 2.05804 0.880218C1.87351 0.880218 1.70833 0.91954 1.5625 0.998185C1.41667 1.07683 1.29315 1.18421 1.19196 1.32033C1.09375 1.45644 1.01786 1.61373 0.964286 1.7922C0.910714 1.97066 0.883929 2.16122 0.883929 2.36388Z" fill="white"/>
</svg>
