<svg width="7" height="10" viewBox="0 0 7 10" fill="none" xmlns="http://www.w3.org/2000/svg">
<g filter="url(#filter0_d_21_4228)">
<path d="M4.25084 6.90374V3.92513C4.25084 3.69697 4.22172 3.49911 4.16349 3.33155C4.1075 3.16043 4.0224 3.02852 3.90817 2.93583C3.79395 2.84314 3.65286 2.79679 3.48488 2.79679C3.32811 2.79679 3.19037 2.83957 3.07167 2.92513C2.95521 3.0107 2.86338 3.12299 2.79619 3.26203C2.73124 3.40107 2.69877 3.5508 2.69877 3.71123H2.07727C2.07727 3.50446 2.11086 3.29947 2.17805 3.09626C2.24524 2.89305 2.34155 2.70945 2.46697 2.54545C2.59462 2.3779 2.74692 2.24599 2.92385 2.14973C3.10302 2.04991 3.30235 2 3.52184 2C3.78611 2 4.01904 2.0713 4.2206 2.2139C4.42441 2.35651 4.58343 2.57219 4.69765 2.86096C4.81411 3.14617 4.87234 3.50446 4.87234 3.93583V6.63102C4.87234 6.82353 4.88242 7.02852 4.90258 7.24599C4.92497 7.46346 4.95745 7.65062 5 7.80749V7.89305H4.35162C4.32027 7.77897 4.29563 7.62745 4.27772 7.4385C4.2598 7.24599 4.25084 7.06774 4.25084 6.90374ZM4.35834 4.38503L4.36506 5.08021H3.73684C3.55991 5.08021 3.40202 5.10339 3.26316 5.14973C3.1243 5.19251 3.00784 5.25847 2.91377 5.34759C2.81971 5.43672 2.74804 5.54902 2.69877 5.68449C2.6495 5.8164 2.62486 5.97148 2.62486 6.14973C2.62486 6.33155 2.65062 6.49733 2.70213 6.64706C2.75364 6.79679 2.83091 6.91622 2.93393 7.00535C3.03919 7.09091 3.16797 7.13369 3.32027 7.13369C3.51064 7.13369 3.67861 7.06952 3.82419 6.94118C3.96976 6.81283 4.08511 6.65597 4.17021 6.47059C4.25756 6.2852 4.30459 6.10517 4.31131 5.93048L4.57671 6.40642C4.56103 6.55615 4.51848 6.72193 4.44905 6.90374C4.37962 7.08556 4.28667 7.26025 4.17021 7.42781C4.05599 7.5918 3.91937 7.72905 3.76036 7.83957C3.60358 7.94652 3.42665 8 3.22956 8C2.9832 8 2.76708 7.92335 2.58119 7.77005C2.39754 7.61676 2.2542 7.41176 2.15118 7.15508C2.05039 6.89483 2 6.60428 2 6.28342C2 5.97326 2.03807 5.70053 2.11422 5.46524C2.19037 5.22638 2.30011 5.02852 2.44345 4.87166C2.58679 4.71123 2.75924 4.59002 2.96081 4.50802C3.16237 4.42602 3.38746 4.38503 3.63606 4.38503H4.35834Z" fill="#EEEEEE"/>
</g>
<defs>
<filter id="filter0_d_21_4228" x="0" y="0" width="7" height="10" filterUnits="userSpaceOnUse" color-interpolation-filters="sRGB">
<feFlood flood-opacity="0" result="BackgroundImageFix"/>
<feColorMatrix in="SourceAlpha" type="matrix" values="0 0 0 0 0 0 0 0 0 0 0 0 0 0 0 0 0 0 127 0" result="hardAlpha"/>
<feOffset/>
<feGaussianBlur stdDeviation="1"/>
<feComposite in2="hardAlpha" operator="out"/>
<feColorMatrix type="matrix" values="0 0 0 0 0 0 0 0 0 0 0 0 0 0 0 0 0 0 0.5 0"/>
<feBlend mode="normal" in2="BackgroundImageFix" result="effect1_dropShadow_21_4228"/>
<feBlend mode="normal" in="SourceGraphic" in2="effect1_dropShadow_21_4228" result="shape"/>
</filter>
</defs>
</svg>
