<svg width="9" height="11" viewBox="0 0 9 11" fill="none" xmlns="http://www.w3.org/2000/svg">
<g filter="url(#filter0_d_21_4210)">
<path d="M6.08318 7.18449C6.08318 7.0254 6.05797 6.88503 6.00756 6.76337C5.9603 6.63859 5.87524 6.52629 5.75236 6.42647C5.63264 6.32665 5.46566 6.23151 5.25142 6.14104C5.04033 6.05058 4.77253 5.95856 4.44801 5.86497C4.10775 5.76515 3.80057 5.65441 3.52646 5.53275C3.25236 5.40798 3.01764 5.26604 2.82231 5.10695C2.62697 4.94786 2.47732 4.76537 2.37335 4.55949C2.26938 4.35361 2.21739 4.11809 2.21739 3.85294C2.21739 3.58779 2.27253 3.34291 2.3828 3.11832C2.49307 2.89372 2.6506 2.69875 2.85539 2.53342C3.06333 2.36497 3.31065 2.23396 3.59735 2.14037C3.88406 2.04679 4.20384 2 4.55671 2C5.07341 2 5.51134 2.09826 5.87051 2.29479C6.23283 2.48819 6.50851 2.74242 6.69754 3.05749C6.88658 3.36943 6.9811 3.70321 6.9811 4.05882H6.07372C6.07372 3.80303 6.01859 3.57687 5.90832 3.38035C5.79805 3.1807 5.63106 3.02473 5.40737 2.91243C5.18368 2.79701 4.90013 2.7393 4.55671 2.7393C4.2322 2.7393 3.9644 2.78766 3.75331 2.88436C3.54222 2.98106 3.38469 3.11208 3.28072 3.27741C3.1799 3.44274 3.12949 3.63146 3.12949 3.84358C3.12949 3.98708 3.15942 4.11809 3.21928 4.23663C3.28229 4.35205 3.37839 4.45967 3.50756 4.55949C3.63989 4.65931 3.80687 4.75134 4.00851 4.83556C4.2133 4.91979 4.45747 5.00089 4.74102 5.07888C5.13169 5.18806 5.46881 5.30971 5.75236 5.44385C6.03592 5.57799 6.26906 5.72928 6.4518 5.89773C6.63768 6.06306 6.77473 6.25178 6.86295 6.4639C6.95432 6.67291 7 6.90998 7 7.17513C7 7.45276 6.94329 7.70388 6.82987 7.92848C6.71645 8.15308 6.55419 8.34492 6.3431 8.50401C6.13201 8.6631 5.87839 8.78632 5.58223 8.87366C5.28922 8.95789 4.96156 9 4.59924 9C4.28103 9 3.96755 8.95633 3.65879 8.86898C3.35318 8.78164 3.07435 8.65062 2.82231 8.47594C2.57341 8.30125 2.37335 8.08601 2.22212 7.83021C2.07404 7.5713 2 7.27184 2 6.93182H2.90737C2.90737 7.16578 2.95306 7.36698 3.04442 7.53543C3.13579 7.70076 3.26024 7.83801 3.41777 7.94719C3.57845 8.05637 3.75961 8.13748 3.96125 8.19051C4.16604 8.24042 4.3787 8.26537 4.59924 8.26537C4.91745 8.26537 5.18683 8.2217 5.40737 8.13436C5.62791 8.04701 5.7949 7.92224 5.90832 7.76003C6.02489 7.59782 6.08318 7.40597 6.08318 7.18449Z" fill="#EEEEEE"/>
</g>
<defs>
<filter id="filter0_d_21_4210" x="0" y="0" width="9" height="11" filterUnits="userSpaceOnUse" color-interpolation-filters="sRGB">
<feFlood flood-opacity="0" result="BackgroundImageFix"/>
<feColorMatrix in="SourceAlpha" type="matrix" values="0 0 0 0 0 0 0 0 0 0 0 0 0 0 0 0 0 0 127 0" result="hardAlpha"/>
<feOffset/>
<feGaussianBlur stdDeviation="1"/>
<feComposite in2="hardAlpha" operator="out"/>
<feColorMatrix type="matrix" values="0 0 0 0 0 0 0 0 0 0 0 0 0 0 0 0 0 0 0.5 0"/>
<feBlend mode="normal" in2="BackgroundImageFix" result="effect1_dropShadow_21_4210"/>
<feBlend mode="normal" in="SourceGraphic" in2="effect1_dropShadow_21_4210" result="shape"/>
</filter>
</defs>
</svg>
