<svg width="6" height="8" viewBox="0 0 6 8" fill="none" xmlns="http://www.w3.org/2000/svg">
<g filter="url(#filter0_d_21_4256)">
<path d="M2.84266 2.82033V6H2V2.0726H2.8042L2.84266 2.82033ZM4 2.04719L3.99301 2.86025C3.94172 2.85057 3.88578 2.84332 3.82517 2.83848C3.7669 2.83364 3.70862 2.83122 3.65035 2.83122C3.50583 2.83122 3.37879 2.85299 3.26923 2.89655C3.15967 2.93769 3.0676 2.99819 2.99301 3.07804C2.92075 3.15547 2.8648 3.24985 2.82517 3.36116C2.78555 3.47247 2.76224 3.5971 2.75524 3.73503L2.56294 3.74955C2.56294 3.50272 2.58625 3.27405 2.63287 3.06352C2.67949 2.85299 2.74942 2.66788 2.84266 2.50817C2.93823 2.34846 3.05711 2.22384 3.1993 2.1343C3.34382 2.04477 3.51049 2 3.6993 2C3.75058 2 3.80536 2.00484 3.86364 2.01452C3.92424 2.0242 3.9697 2.03509 4 2.04719Z" fill="#EEEEEE"/>
</g>
<defs>
<filter id="filter0_d_21_4256" x="0" y="0" width="6" height="8" filterUnits="userSpaceOnUse" color-interpolation-filters="sRGB">
<feFlood flood-opacity="0" result="BackgroundImageFix"/>
<feColorMatrix in="SourceAlpha" type="matrix" values="0 0 0 0 0 0 0 0 0 0 0 0 0 0 0 0 0 0 127 0" result="hardAlpha"/>
<feOffset/>
<feGaussianBlur stdDeviation="1"/>
<feComposite in2="hardAlpha" operator="out"/>
<feColorMatrix type="matrix" values="0 0 0 0 0 0 0 0 0 0 0 0 0 0 0 0 0 0 0.5 0"/>
<feBlend mode="normal" in2="BackgroundImageFix" result="effect1_dropShadow_21_4256"/>
<feBlend mode="normal" in="SourceGraphic" in2="effect1_dropShadow_21_4256" result="shape"/>
</filter>
</defs>
</svg>
