<svg width="7" height="10" viewBox="0 0 7 10" fill="none" xmlns="http://www.w3.org/2000/svg">
<g filter="url(#filter0_d_21_4209)">
<path d="M2 5.06417V4.94118C2 4.52406 2.03452 4.13725 2.10355 3.78075C2.17259 3.42068 2.27208 3.10873 2.40203 2.84492C2.53198 2.57754 2.68934 2.37077 2.87411 2.2246C3.05888 2.07487 3.26599 2 3.49543 2C3.7269 2 3.93503 2.07487 4.1198 2.2246C4.3066 2.37077 4.46497 2.57754 4.59492 2.84492C4.7269 3.10873 4.82741 3.42068 4.89645 3.78075C4.96548 4.13725 5 4.52406 5 4.94118V5.06417C5 5.48128 4.96548 5.86809 4.89645 6.2246C4.82741 6.58111 4.7269 6.89305 4.59492 7.16043C4.46497 7.42424 4.30761 7.63102 4.12284 7.78075C3.9401 7.92692 3.73299 8 3.50152 8C3.27005 8 3.06193 7.92692 2.87716 7.78075C2.69239 7.63102 2.53401 7.42424 2.40203 7.16043C2.27208 6.89305 2.17259 6.58111 2.10355 6.2246C2.03452 5.86809 2 5.48128 2 5.06417ZM2.56345 4.94118V5.06417C2.56345 5.35294 2.58274 5.62567 2.62132 5.88235C2.6599 6.13547 2.71777 6.36007 2.79492 6.55615C2.87411 6.75223 2.97259 6.90731 3.09036 7.02139C3.20812 7.13191 3.34518 7.18717 3.50152 7.18717C3.65584 7.18717 3.79086 7.13191 3.9066 7.02139C4.02437 6.90731 4.12183 6.75223 4.19898 6.55615C4.27614 6.36007 4.33401 6.13547 4.37259 5.88235C4.4132 5.62567 4.4335 5.35294 4.4335 5.06417V4.94118C4.4335 4.65597 4.4132 4.38681 4.37259 4.13369C4.33401 3.87701 4.27513 3.65062 4.19594 3.45455C4.11878 3.2549 4.02132 3.09804 3.90355 2.98396C3.78782 2.86988 3.65178 2.81283 3.49543 2.81283C3.34112 2.81283 3.20508 2.86988 3.08731 2.98396C2.97157 3.09804 2.87411 3.2549 2.79492 3.45455C2.71777 3.65062 2.6599 3.87701 2.62132 4.13369C2.58274 4.38681 2.56345 4.65597 2.56345 4.94118Z" fill="#EEEEEE"/>
</g>
<defs>
<filter id="filter0_d_21_4209" x="0" y="0" width="7" height="10" filterUnits="userSpaceOnUse" color-interpolation-filters="sRGB">
<feFlood flood-opacity="0" result="BackgroundImageFix"/>
<feColorMatrix in="SourceAlpha" type="matrix" values="0 0 0 0 0 0 0 0 0 0 0 0 0 0 0 0 0 0 127 0" result="hardAlpha"/>
<feOffset/>
<feGaussianBlur stdDeviation="1"/>
<feComposite in2="hardAlpha" operator="out"/>
<feColorMatrix type="matrix" values="0 0 0 0 0 0 0 0 0 0 0 0 0 0 0 0 0 0 0.5 0"/>
<feBlend mode="normal" in2="BackgroundImageFix" result="effect1_dropShadow_21_4209"/>
<feBlend mode="normal" in="SourceGraphic" in2="effect1_dropShadow_21_4209" result="shape"/>
</filter>
</defs>
</svg>
