<svg width="2" height="6" viewBox="0 0 2 6" fill="none" xmlns="http://www.w3.org/2000/svg">
<path d="M0.535714 0V6H0V0H0.535714ZM0.441964 3.73047L0.267857 3.72656C0.269345 3.4349 0.292411 3.16536 0.337054 2.91797C0.383185 2.67057 0.447173 2.45573 0.529018 2.27344C0.612351 2.08854 0.712054 1.94661 0.828125 1.84766C0.944196 1.74609 1.07292 1.69531 1.21429 1.69531C1.33333 1.69531 1.44048 1.72396 1.53571 1.78125C1.63244 1.83854 1.71577 1.93099 1.78571 2.05859C1.85565 2.18359 1.90848 2.34766 1.9442 2.55078C1.9814 2.7513 2 2.99609 2 3.28516V6H1.45982V3.27734C1.45982 3.07422 1.44271 2.91276 1.40848 2.79297C1.37574 2.67318 1.32738 2.58724 1.26339 2.53516C1.1994 2.48047 1.12128 2.45312 1.02902 2.45312C0.932292 2.45312 0.846726 2.48698 0.772321 2.55469C0.699405 2.6224 0.638393 2.71484 0.589286 2.83203C0.540179 2.94922 0.502976 3.08464 0.477679 3.23828C0.453869 3.39193 0.441964 3.55599 0.441964 3.73047Z" fill="white"/>
</svg>
