<svg width="4" height="5" viewBox="0 0 4 5" fill="none" xmlns="http://www.w3.org/2000/svg">
<path d="M2.09667 4.14438C2.26566 4.14438 2.41747 4.11022 2.55209 4.04189C2.68958 3.97059 2.79986 3.87255 2.88292 3.74777C2.96885 3.62299 3.01611 3.47891 3.0247 3.31551H4C3.99427 3.62745 3.90548 3.91117 3.73362 4.16667C3.56176 4.42216 3.33405 4.62567 3.05048 4.77718C2.76692 4.92573 2.45328 5 2.10956 5C1.75439 5 1.44504 4.93761 1.18153 4.81283C0.918009 4.68509 0.69889 4.5098 0.524168 4.28699C0.349445 4.06417 0.217687 3.80719 0.128894 3.51604C0.0429646 3.2249 0 2.91295 0 2.58021V2.42424C0 2.0915 0.0429646 1.77956 0.128894 1.48841C0.217687 1.1943 0.349445 0.935829 0.524168 0.713012C0.69889 0.490196 0.918009 0.316399 1.18153 0.191622C1.44504 0.063874 1.75295 0 2.10526 0C2.47762 0 2.80415 0.077243 3.08486 0.231729C3.36556 0.383244 3.58611 0.595662 3.74651 0.868984C3.90977 1.13933 3.99427 1.45425 4 1.81373H3.0247C3.01611 1.63547 2.97315 1.47504 2.89581 1.33244C2.82134 1.18687 2.71536 1.071 2.57787 0.984848C2.44325 0.898693 2.28142 0.855615 2.09237 0.855615C1.88328 0.855615 1.70999 0.900178 1.5725 0.989305C1.43502 1.07546 1.3276 1.1943 1.25027 1.34581C1.17293 1.49436 1.11708 1.66221 1.08271 1.84938C1.0512 2.03357 1.03545 2.22519 1.03545 2.42424V2.58021C1.03545 2.77926 1.0512 2.97237 1.08271 3.15954C1.11421 3.3467 1.16864 3.51456 1.24597 3.6631C1.32617 3.80867 1.43502 3.92602 1.5725 4.01515C1.70999 4.10131 1.88471 4.14438 2.09667 4.14438Z" fill="white"/>
</svg>
