<svg width="8" height="11" viewBox="0 0 8 11" fill="none" xmlns="http://www.w3.org/2000/svg">
<g filter="url(#filter0_d_21_4230)">
<path d="M5.186 7.9653V2H6V8.91003H5.25602L5.186 7.9653ZM2 6.53021V6.43573C2 6.06384 2.04376 5.72644 2.13129 5.42352C2.22174 5.11761 2.34865 4.85518 2.51204 4.63625C2.67834 4.41731 2.87527 4.24936 3.10284 4.13239C3.33333 4.01242 3.59008 3.95244 3.87309 3.95244C4.17068 3.95244 4.43034 4.00643 4.65208 4.1144C4.87673 4.21937 5.06638 4.37382 5.22101 4.57776C5.37856 4.77871 5.50255 5.02164 5.593 5.30656C5.68344 5.59147 5.74617 5.91388 5.78118 6.27378V6.68766C5.74909 7.04456 5.68636 7.36547 5.593 7.65039C5.50255 7.9353 5.37856 8.17823 5.22101 8.37918C5.06638 8.58012 4.87673 8.73458 4.65208 8.84255C4.42743 8.94752 4.16484 9 3.86433 9C3.58716 9 3.33333 8.93852 3.10284 8.81555C2.87527 8.69259 2.67834 8.52014 2.51204 8.2982C2.34865 8.07626 2.22174 7.81534 2.13129 7.51542C2.04376 7.21251 2 6.8841 2 6.53021ZM2.814 6.43573V6.53021C2.814 6.77314 2.83735 7.00107 2.88403 7.21401C2.93363 7.42695 3.00948 7.6144 3.1116 7.77635C3.21371 7.9383 3.34354 8.06577 3.50109 8.15874C3.65864 8.24871 3.84683 8.2937 4.06565 8.2937C4.33406 8.2937 4.55434 8.23522 4.72648 8.11825C4.90153 8.00129 5.04158 7.84683 5.14661 7.65488C5.25164 7.46294 5.33333 7.2545 5.39169 7.02956V5.94537C5.35667 5.78042 5.30562 5.62147 5.23851 5.46851C5.17433 5.31255 5.08972 5.17459 4.98468 5.05463C4.88257 4.93166 4.75565 4.83419 4.60394 4.76221C4.45514 4.69023 4.27863 4.65424 4.0744 4.65424C3.85266 4.65424 3.66156 4.70223 3.50109 4.7982C3.34354 4.89117 3.21371 5.02014 3.1116 5.18509C3.00948 5.34704 2.93363 5.53599 2.88403 5.75193C2.83735 5.96487 2.814 6.1928 2.814 6.43573Z" fill="#EEEEEE"/>
</g>
<defs>
<filter id="filter0_d_21_4230" x="0" y="0" width="8" height="11" filterUnits="userSpaceOnUse" color-interpolation-filters="sRGB">
<feFlood flood-opacity="0" result="BackgroundImageFix"/>
<feColorMatrix in="SourceAlpha" type="matrix" values="0 0 0 0 0 0 0 0 0 0 0 0 0 0 0 0 0 0 127 0" result="hardAlpha"/>
<feOffset/>
<feGaussianBlur stdDeviation="1"/>
<feComposite in2="hardAlpha" operator="out"/>
<feColorMatrix type="matrix" values="0 0 0 0 0 0 0 0 0 0 0 0 0 0 0 0 0 0 0.5 0"/>
<feBlend mode="normal" in2="BackgroundImageFix" result="effect1_dropShadow_21_4230"/>
<feBlend mode="normal" in="SourceGraphic" in2="effect1_dropShadow_21_4230" result="shape"/>
</filter>
</defs>
</svg>
