<svg width="7" height="8" viewBox="0 0 7 8" fill="none" xmlns="http://www.w3.org/2000/svg">
<g filter="url(#filter0_d_21_4245)">
<path d="M3.63694 6C3.3851 6 3.1574 5.95365 2.95383 5.86096C2.75236 5.76589 2.58027 5.63399 2.43757 5.46524C2.29696 5.29649 2.18888 5.09804 2.11333 4.86988C2.03778 4.64171 2 4.39572 2 4.13191V3.9893C2 3.68746 2.03882 3.41414 2.11647 3.16934C2.19412 2.92454 2.3022 2.71539 2.44071 2.54189C2.57922 2.36601 2.74292 2.23173 2.93179 2.13904C3.12067 2.04635 3.32529 2 3.54565 2C3.78909 2 4.0021 2.04635 4.18468 2.13904C4.36726 2.23173 4.51836 2.36245 4.63799 2.53119C4.75971 2.69756 4.84995 2.89602 4.90871 3.12656C4.96957 3.3571 5 3.61141 5 3.88948V4.25668H2.36831V3.63993H4.25079V3.57219C4.24659 3.41771 4.21931 3.27273 4.16894 3.13725C4.12067 3.00178 4.04617 2.89245 3.94544 2.80927C3.8447 2.72608 3.71039 2.68449 3.5425 2.68449C3.41658 2.68449 3.3043 2.71539 3.20567 2.77718C3.10913 2.8366 3.02833 2.92335 2.96327 3.03743C2.89822 3.15152 2.84785 3.28936 2.81217 3.45098C2.77859 3.61022 2.7618 3.78966 2.7618 3.9893V4.13191C2.7618 4.30065 2.78174 4.45752 2.82162 4.6025C2.86359 4.7451 2.92445 4.86988 3.0042 4.97683C3.08395 5.08378 3.18048 5.16815 3.29381 5.22995C3.40714 5.28936 3.5362 5.31907 3.68101 5.31907C3.86359 5.31907 4.02623 5.27748 4.16894 5.1943C4.31165 5.11111 4.43547 4.99346 4.5404 4.84135L4.94019 5.27986C4.86674 5.40107 4.77125 5.51753 4.65373 5.62923C4.5362 5.73856 4.39245 5.82769 4.22246 5.89661C4.05456 5.96554 3.85939 6 3.63694 6Z" fill="#EEEEEE"/>
</g>
<defs>
<filter id="filter0_d_21_4245" x="0" y="0" width="7" height="8" filterUnits="userSpaceOnUse" color-interpolation-filters="sRGB">
<feFlood flood-opacity="0" result="BackgroundImageFix"/>
<feColorMatrix in="SourceAlpha" type="matrix" values="0 0 0 0 0 0 0 0 0 0 0 0 0 0 0 0 0 0 127 0" result="hardAlpha"/>
<feOffset/>
<feGaussianBlur stdDeviation="1"/>
<feComposite in2="hardAlpha" operator="out"/>
<feColorMatrix type="matrix" values="0 0 0 0 0 0 0 0 0 0 0 0 0 0 0 0 0 0 0.5 0"/>
<feBlend mode="normal" in2="BackgroundImageFix" result="effect1_dropShadow_21_4245"/>
<feBlend mode="normal" in="SourceGraphic" in2="effect1_dropShadow_21_4245" result="shape"/>
</filter>
</defs>
</svg>
