<svg width="16" height="18" viewBox="0 0 16 18" fill="none" xmlns="http://www.w3.org/2000/svg">
<path d="M3.50949 6.27818V16.2324H0.194754V6.27818H3.50949ZM3.72042 3.20452C3.72712 3.69336 3.55804 4.10184 3.21317 4.42997C2.8683 4.75809 2.41462 4.92215 1.85212 4.92215H1.83203C1.28292 4.92215 0.84096 4.75809 0.506138 4.42997C0.171317 4.10184 0.00390625 3.69336 0.00390625 3.20452C0.00390625 2.70898 0.176339 2.29883 0.521205 1.97405C0.866071 1.64927 1.31641 1.48689 1.87221 1.48689C2.42801 1.48689 2.87333 1.64927 3.20815 1.97405C3.54297 2.29883 3.71373 2.70898 3.72042 3.20452ZM15.4325 10.5271V16.2324H12.1278V10.9088C12.1278 10.2056 11.9922 9.65485 11.721 9.25642C11.4498 8.85798 11.0262 8.65876 10.4503 8.65876C10.0285 8.65876 9.67522 8.77427 9.39062 9.0053C9.10603 9.23633 8.89342 9.5226 8.75279 9.86412C8.67913 10.065 8.6423 10.3362 8.6423 10.6777V16.2324H5.33761C5.351 13.5605 5.3577 11.3943 5.3577 9.73354C5.3577 8.07282 5.35435 7.08175 5.34766 6.76032L5.33761 6.27818H8.6423V7.72461H8.62221C8.75614 7.51032 8.89342 7.32282 9.03404 7.16211C9.17467 7.0014 9.36384 6.82729 9.60156 6.63979C9.83929 6.45229 10.1306 6.30664 10.4754 6.20285C10.8203 6.09905 11.2037 6.04715 11.6256 6.04715C12.7706 6.04715 13.6914 6.42718 14.3878 7.18722C15.0843 7.94727 15.4325 9.06055 15.4325 10.5271Z" fill="black"/>
</svg>
