<svg width="16" height="16" viewBox="0 0 16 16" fill="none" xmlns="http://www.w3.org/2000/svg">
<path d="M8.0013 0.666016C3.93464 0.666016 0.667969 3.93268 0.667969 7.99935C0.667969 12.066 3.93464 15.3327 8.0013 15.3327C12.068 15.3327 15.3346 12.066 15.3346 7.99935C15.3346 3.93268 12.068 0.666016 8.0013 0.666016ZM13.3346 7.99935C13.3346 8.46602 13.268 8.93268 13.1346 9.33268C12.7346 8.33268 12.068 7.26602 11.1346 6.19935L12.3346 4.99935C13.0013 5.86602 13.3346 6.86602 13.3346 7.99935ZM4.33464 4.33268C5.2013 4.33268 6.73464 4.86602 8.33464 6.26602L6.2013 8.39935C4.73464 6.53268 4.33464 4.99935 4.33464 4.33268ZM9.73464 7.66602C11.268 9.46602 11.668 10.9993 11.668 11.666C10.8013 11.666 9.26797 11.1327 7.66797 9.73268L9.73464 7.66602ZM11.0013 3.59935L9.73464 4.86602C8.66797 3.93268 7.6013 3.26602 6.6013 2.86602C7.06797 2.73268 7.46797 2.66602 7.93464 2.66602C9.13463 2.66602 10.1346 2.99935 11.0013 3.59935ZM2.66797 7.99935C2.66797 7.53268 2.73464 7.06602 2.86797 6.66602C3.26797 7.66602 3.93464 8.73268 4.86797 9.79935L3.66797 10.9993C3.0013 10.1327 2.66797 9.13268 2.66797 7.99935ZM5.0013 12.3993L6.26797 11.1327C7.33464 12.066 8.4013 12.7327 9.4013 13.1327C8.93464 13.266 8.53464 13.3327 8.06797 13.3327C6.86797 13.3327 5.86797 12.9993 5.0013 12.3993Z" fill="white"/>
</svg>
