<svg width="18" height="22" viewBox="0 0 18 22" fill="none" xmlns="http://www.w3.org/2000/svg">
<path d="M17.2935 15.2235C17.2935 15.4445 17.2526 15.733 17.1708 16.089C17.0889 16.445 17.003 16.7254 16.9129 16.93C16.7411 17.3392 16.2418 17.773 15.4152 18.2313C14.6458 18.6487 13.8847 18.8574 13.1317 18.8574C12.9107 18.8574 12.6938 18.8431 12.481 18.8145C12.2682 18.7858 12.0329 18.7347 11.7751 18.661C11.5173 18.5873 11.325 18.528 11.1981 18.483C11.0712 18.438 10.8441 18.3541 10.5167 18.2313C10.1894 18.1085 9.98884 18.0349 9.91518 18.0103C9.11309 17.7239 8.39695 17.3842 7.76674 16.9914C6.72731 16.3448 5.64695 15.4608 4.52567 14.3396C3.40439 13.2183 2.52046 12.1379 1.87388 11.0985C1.48103 10.4683 1.14137 9.75214 0.854911 8.95006C0.830357 8.8764 0.756696 8.67588 0.633929 8.34849C0.511161 8.02111 0.427269 7.79399 0.382254 7.66713C0.33724 7.54027 0.277902 7.34794 0.204241 7.09012C0.13058 6.83231 0.0794271 6.59701 0.0507812 6.38421C0.0221354 6.17141 0.0078125 5.95452 0.0078125 5.73354C0.0078125 4.98056 0.216518 4.2194 0.633929 3.45006C1.09226 2.62342 1.52604 2.12416 1.93527 1.95229C2.13988 1.86226 2.4202 1.77632 2.77623 1.69448C3.13225 1.61263 3.42076 1.57171 3.64174 1.57171C3.75632 1.57171 3.84226 1.58399 3.89955 1.60854C4.04687 1.65765 4.26376 1.96866 4.55022 2.54157C4.64025 2.69708 4.76302 2.91806 4.91853 3.20452C5.07403 3.49098 5.21726 3.75084 5.34821 3.9841C5.47917 4.21736 5.60603 4.43629 5.72879 4.64091C5.75335 4.67364 5.82496 4.77595 5.94364 4.94783C6.06231 5.1197 6.1503 5.26498 6.20759 5.38365C6.26488 5.50233 6.29353 5.61896 6.29353 5.73354C6.29353 5.89723 6.1769 6.10184 5.94364 6.34738C5.71038 6.59291 5.45666 6.81799 5.18248 7.0226C4.9083 7.22721 4.65458 7.4441 4.42132 7.67327C4.18806 7.90244 4.07143 8.09068 4.07143 8.238C4.07143 8.31166 4.09189 8.40374 4.13281 8.51423C4.17373 8.62472 4.20852 8.70861 4.23716 8.76591C4.26581 8.8232 4.3231 8.92141 4.40904 9.06055C4.49498 9.19969 4.54204 9.27744 4.55022 9.29381C5.17225 10.4151 5.8843 11.3768 6.68638 12.1789C7.48847 12.9809 8.45015 13.693 9.57143 14.315C9.5878 14.3232 9.66555 14.3703 9.80469 14.4562C9.94382 14.5421 10.042 14.5994 10.0993 14.6281C10.1566 14.6567 10.2405 14.6915 10.351 14.7324C10.4615 14.7733 10.5536 14.7938 10.6272 14.7938C10.7746 14.7938 10.9628 14.6772 11.192 14.4439C11.4211 14.2107 11.638 13.9569 11.8426 13.6828C12.0472 13.4086 12.2723 13.1549 12.5179 12.9216C12.7634 12.6883 12.968 12.5717 13.1317 12.5717C13.2463 12.5717 13.3629 12.6004 13.4816 12.6576C13.6003 12.7149 13.7455 12.8029 13.9174 12.9216C14.0893 13.0403 14.1916 13.1119 14.2243 13.1364C14.4289 13.2592 14.6479 13.3861 14.8811 13.517C15.1144 13.648 15.3743 13.7912 15.6607 13.9467C15.9472 14.1022 16.1682 14.225 16.3237 14.315C16.8966 14.6015 17.2076 14.8184 17.2567 14.9657C17.2812 15.023 17.2935 15.1089 17.2935 15.2235Z" fill="black"/>
</svg>
