<svg width="22" height="22" viewBox="0 0 22 22" fill="none" xmlns="http://www.w3.org/2000/svg">
<path d="M22 8.71568V18.4634C22 19.0036 21.8077 19.4661 21.423 19.8507C21.0383 20.2354 20.5759 20.4277 20.0357 20.4277H1.96429C1.42411 20.4277 0.961682 20.2354 0.577009 19.8507C0.192336 19.4661 0 19.0036 0 18.4634V8.71568C0.360119 9.11672 0.773438 9.47275 1.23996 9.78376C4.20275 11.7972 6.23661 13.209 7.34152 14.0193C7.80804 14.363 8.18657 14.631 8.47712 14.8234C8.76767 15.0157 9.15439 15.2121 9.63728 15.4127C10.1202 15.6132 10.5703 15.7134 10.9877 15.7134H11H11.0123C11.4297 15.7134 11.8798 15.6132 12.3627 15.4127C12.8456 15.2121 13.2323 15.0157 13.5229 14.8234C13.8134 14.631 14.192 14.363 14.6585 14.0193C16.0499 13.0126 18.0878 11.6007 20.7723 9.78376C21.2388 9.46457 21.6481 9.10854 22 8.71568ZM22 5.10631C22 5.75288 21.7995 6.37082 21.3984 6.9601C20.9974 7.54939 20.4981 8.05274 19.9007 8.47015C16.8233 10.6063 14.9081 11.9363 14.1551 12.4601C14.0733 12.5174 13.8994 12.6422 13.6334 12.8345C13.3674 13.0269 13.1464 13.1824 12.9704 13.3011C12.7945 13.4197 12.5817 13.5527 12.332 13.7001C12.0824 13.8474 11.8471 13.9579 11.6261 14.0315C11.4051 14.1052 11.2005 14.142 11.0123 14.142H11H10.9877C10.7995 14.142 10.5949 14.1052 10.3739 14.0315C10.1529 13.9579 9.9176 13.8474 9.66797 13.7001C9.41834 13.5527 9.20554 13.4197 9.02958 13.3011C8.85361 13.1824 8.63263 13.0269 8.36663 12.8345C8.10063 12.6422 7.92671 12.5174 7.84487 12.4601C7.10007 11.9363 6.0279 11.1895 4.62835 10.2196C3.22879 9.24972 2.38988 8.66657 2.11161 8.47015C1.60417 8.1264 1.12537 7.65374 0.675223 7.05218C0.225074 6.45061 0 5.89202 0 5.3764C0 4.738 0.169829 4.20601 0.509487 3.78041C0.849144 3.35482 1.33408 3.14202 1.96429 3.14202H20.0357C20.5677 3.14202 21.0281 3.33436 21.4169 3.71903C21.8056 4.1037 22 4.56613 22 5.10631Z" fill="black"/>
</svg>
