<svg width="128" height="38" viewBox="0 0 128 38" fill="none" xmlns="http://www.w3.org/2000/svg">
<g clip-path="url(#clip0_21_4153)">
<path d="M123.259 37.9258H4.74072C2.08592 37.9258 0 35.8399 0 33.1851V4.74072C0 2.08592 2.08592 0 4.74072 0H123.259C125.914 0 128 2.08592 128 4.74072V33.1851C128 35.8399 125.914 37.9258 123.259 37.9258Z" fill="black"/>
<path d="M123.259 0.758516C125.44 0.758516 127.241 2.55999 127.241 4.74072V33.1851C127.241 35.3658 125.44 37.1673 123.259 37.1673H4.74072C2.55999 37.1673 0.758516 35.3658 0.758516 33.1851V4.74072C0.758516 2.55999 2.55999 0.758516 4.74072 0.758516H123.259ZM123.259 0H4.74072C2.08592 0 0 2.18073 0 4.74072V33.1851C0 35.8399 2.08592 37.9258 4.74072 37.9258H123.259C125.914 37.9258 128 35.8399 128 33.1851V4.74072C128 2.18073 125.914 0 123.259 0Z" fill="#A6A6A6"/>
<path d="M44.941 9.67089C44.941 10.4294 44.7513 11.0931 44.2772 11.5672C43.7084 12.1361 43.0447 12.4205 42.1913 12.4205C41.338 12.4205 40.6743 12.1361 40.1054 11.5672C39.5365 10.9983 39.2521 10.3346 39.2521 9.48126C39.2521 8.62793 39.5365 7.96423 40.1054 7.39534C40.6743 6.82646 41.338 6.54201 42.1913 6.54201C42.5706 6.54201 42.9498 6.63683 43.3291 6.82646C43.7084 7.01609 43.9928 7.20572 44.1824 7.49016L43.7084 7.96423C43.3291 7.49016 42.855 7.30053 42.1913 7.30053C41.6224 7.30053 41.0536 7.49016 40.6743 7.96423C40.2002 8.34349 40.0106 8.91238 40.0106 9.57608C40.0106 10.2398 40.2002 10.8087 40.6743 11.1879C41.1484 11.5672 41.6224 11.8516 42.1913 11.8516C42.855 11.8516 43.3291 11.662 43.8032 11.1879C44.0876 10.9035 44.2772 10.5242 44.2772 10.0501H42.1913V9.29163H44.941V9.67089ZM49.3024 7.30053H46.7424V9.102H49.1128V9.76571H46.7424V11.5672H49.3024V12.3257H45.9839V6.63683H49.3024V7.30053ZM52.4313 12.3257H51.6728V7.30053H50.0609V6.63683H54.0431V7.30053H52.4313V12.3257ZM56.7928 12.3257V6.63683H57.5513V12.3257H56.7928ZM60.775 12.3257H60.0164V7.30053H58.4046V6.63683H62.292V7.30053H60.6801L60.775 12.3257ZM69.7823 11.5672C69.2134 12.1361 68.5498 12.4205 67.6964 12.4205C66.8431 12.4205 66.1794 12.1361 65.6105 11.5672C65.0416 10.9983 64.7572 10.3346 64.7572 9.48126C64.7572 8.62793 65.0416 7.96423 65.6105 7.39534C66.1794 6.82646 66.8431 6.54201 67.6964 6.54201C68.5498 6.54201 69.2134 6.82646 69.7823 7.39534C70.3512 7.96423 70.6357 8.62793 70.6357 9.48126C70.6357 10.3346 70.3512 10.9983 69.7823 11.5672ZM66.1794 11.0931C66.5587 11.4724 67.1275 11.7568 67.6964 11.7568C68.2653 11.7568 68.8342 11.5672 69.2135 11.0931C69.5927 10.7139 69.8771 10.145 69.8771 9.48126C69.8771 8.81756 69.6875 8.24867 69.2135 7.86942C68.8342 7.49016 68.2653 7.20571 67.6964 7.20571C67.1275 7.20571 66.5587 7.39534 66.1794 7.86942C65.8001 8.24867 65.5157 8.81756 65.5157 9.48126C65.5157 10.145 65.7053 10.7139 66.1794 11.0931ZM71.6786 12.3257V6.63683H72.532L75.2816 11.0931V6.63683H76.0401V12.3257H75.2816L72.3423 7.67979V12.3257H71.6786Z" fill="white" stroke="white" stroke-width="0.1896" stroke-miterlimit="10"/>
<path d="M64.5668 20.6697C62.2912 20.6697 60.4898 22.3764 60.4898 24.7467C60.4898 27.0223 62.2912 28.8237 64.5668 28.8237C66.8423 28.8237 68.6438 27.1171 68.6438 24.7467C68.6438 22.2815 66.8423 20.6697 64.5668 20.6697ZM64.5668 27.1171C63.3342 27.1171 62.2912 26.0741 62.2912 24.6519C62.2912 23.2297 63.3342 22.1867 64.5668 22.1867C65.7994 22.1867 66.8423 23.1349 66.8423 24.6519C66.8423 26.0741 65.7994 27.1171 64.5668 27.1171ZM55.749 20.6697C53.4735 20.6697 51.672 22.3764 51.672 24.7467C51.672 27.0223 53.4735 28.8237 55.749 28.8237C58.0246 28.8237 59.8261 27.1171 59.8261 24.7467C59.8261 22.2815 58.0246 20.6697 55.749 20.6697ZM55.749 27.1171C54.5165 27.1171 53.4735 26.0741 53.4735 24.6519C53.4735 23.2297 54.5165 22.1867 55.749 22.1867C56.9816 22.1867 58.0246 23.1349 58.0246 24.6519C58.0246 26.0741 56.9816 27.1171 55.749 27.1171ZM45.2246 21.9023V23.6089H49.3017C49.2068 24.5571 48.8276 25.3156 48.3535 25.7897C47.7846 26.3586 46.8365 27.0223 45.2246 27.0223C42.6646 27.0223 40.7684 25.0312 40.7684 22.4712C40.7684 19.9112 42.7595 17.9201 45.2246 17.9201C46.552 17.9201 47.595 18.489 48.3535 19.1527L49.5861 17.9201C48.5431 16.9719 47.2157 16.2134 45.3195 16.2134C41.9061 16.2134 38.9669 19.0578 38.9669 22.4712C38.9669 25.8845 41.9061 28.7289 45.3195 28.7289C47.2157 28.7289 48.5431 28.16 49.6809 26.9274C50.8187 25.7897 51.198 24.1778 51.198 22.9452C51.198 22.566 51.198 22.1867 51.1031 21.9023H45.2246ZM88.2704 23.2297C87.8912 22.2815 86.943 20.6697 84.8571 20.6697C82.7712 20.6697 81.0645 22.2815 81.0645 24.7467C81.0645 27.0223 82.7712 28.8237 85.0467 28.8237C86.8482 28.8237 87.986 27.686 88.3652 27.0223L87.0378 26.0741C86.5637 26.7378 85.9949 27.2119 85.0467 27.2119C84.0986 27.2119 83.5297 26.8326 83.0556 25.9793L88.46 23.7038L88.2704 23.2297ZM82.7712 24.5571C82.7712 23.0401 84.0038 22.1867 84.8571 22.1867C85.5208 22.1867 86.1845 22.566 86.3741 23.0401L82.7712 24.5571ZM78.3149 28.4445H80.1164V16.5927H78.3149V28.4445ZM75.4705 21.523C74.9964 21.0489 74.2379 20.5749 73.2897 20.5749C71.2986 20.5749 69.4023 22.3764 69.4023 24.6519C69.4023 26.9274 71.2038 28.6341 73.2897 28.6341C74.2379 28.6341 74.9964 28.16 75.3756 27.686H75.4705V28.2548C75.4705 29.7719 74.6171 30.6252 73.2897 30.6252C72.2468 30.6252 71.4882 29.8667 71.2986 29.203L69.7816 29.8667C70.2557 30.9097 71.3934 32.2371 73.3845 32.2371C75.4705 32.2371 77.1771 31.0045 77.1771 28.0652V20.8593H75.4705V21.523ZM73.3845 27.1171C72.152 27.1171 71.109 26.0741 71.109 24.6519C71.109 23.2297 72.152 22.1867 73.3845 22.1867C74.6171 22.1867 75.5653 23.2297 75.5653 24.6519C75.5653 26.0741 74.6171 27.1171 73.3845 27.1171ZM96.5193 16.5927H92.2526V28.4445H94.0541V23.9882H96.5193C98.5104 23.9882 100.407 22.566 100.407 20.2904C100.407 18.0149 98.5104 16.5927 96.5193 16.5927ZM96.6141 22.2815H94.0541V18.2045H96.6141C97.9415 18.2045 98.7 19.3423 98.7 20.1956C98.6052 21.2386 97.8467 22.2815 96.6141 22.2815ZM107.518 20.5749C106.19 20.5749 104.863 21.1438 104.389 22.3764L106.001 23.0401C106.38 22.3764 106.949 22.1867 107.613 22.1867C108.561 22.1867 109.414 22.7556 109.509 23.7038V23.7986C109.224 23.6089 108.466 23.3245 107.707 23.3245C106.001 23.3245 104.294 24.2726 104.294 25.9793C104.294 27.5911 105.716 28.6341 107.233 28.6341C108.466 28.6341 109.035 28.0652 109.509 27.4963H109.604V28.4445H111.31V23.8934C111.121 21.8075 109.509 20.5749 107.518 20.5749ZM107.328 27.1171C106.759 27.1171 105.906 26.8326 105.906 26.0741C105.906 25.126 106.949 24.8415 107.802 24.8415C108.561 24.8415 108.94 25.0312 109.414 25.2208C109.224 26.3586 108.276 27.1171 107.328 27.1171ZM117.284 20.8593L115.293 25.9793H115.198L113.112 20.8593H111.216L114.344 28.0652L112.543 32.0474H114.344L119.18 20.8593H117.284ZM101.355 28.4445H103.156V16.5927H101.355V28.4445Z" fill="white"/>
<path d="M9.86117 7.11046C9.57673 7.3949 9.48192 7.86898 9.48192 8.43786V29.3919C9.48192 29.9607 9.67154 30.4348 9.95599 30.7193L10.0508 30.8141L21.8078 19.0571V18.8675L9.86117 7.11046Z" fill="url(#paint0_linear_21_4153)"/>
<path d="M25.6016 23.04L21.7143 19.1526V18.8682L25.6016 14.9808L25.6965 15.0756L30.3424 17.7304C31.6698 18.4889 31.6698 19.7215 30.3424 20.48L25.6016 23.04Z" fill="url(#paint1_linear_21_4153)"/>
<path d="M25.6949 22.946L21.7127 18.9638L9.86088 30.8156C10.335 31.2897 10.9987 31.2897 11.852 30.9105L25.6949 22.946Z" fill="url(#paint2_linear_21_4153)"/>
<path d="M25.6949 14.9811L11.852 7.11154C10.9987 6.63747 10.335 6.73229 9.86088 7.20636L21.7127 18.9634L25.6949 14.9811Z" fill="url(#paint3_linear_21_4153)"/>
<path opacity="0.2" d="M25.6001 22.8511L11.852 30.6259C11.0935 31.1 10.4298 31.0052 9.95569 30.6259L9.86088 30.7207L9.95569 30.8156C10.4298 31.1948 11.0935 31.2896 11.852 30.8156L25.6001 22.8511Z" fill="black"/>
<path opacity="0.12" d="M9.86117 30.626C9.57673 30.3416 9.48192 29.8675 9.48192 29.2986V29.3934C9.48192 29.9623 9.67154 30.4364 9.95599 30.7208V30.626H9.86117ZM30.3411 20.1964L25.6004 22.8512L25.6952 22.946L30.3411 20.2912C31.0048 19.912 31.2892 19.4379 31.2892 18.9638C31.2892 19.4379 30.91 19.8172 30.3411 20.1964Z" fill="black"/>
<path opacity="0.25" d="M11.8523 7.20555L30.3411 17.73C30.91 18.1092 31.2892 18.4885 31.2892 18.9625C31.2892 18.4885 31.0048 18.0144 30.3411 17.6351L11.8523 7.20555C10.5249 6.35222 9.48192 6.9211 9.48192 8.43813V8.53295C9.48192 7.11073 10.5249 6.44703 11.8523 7.20555Z" fill="white"/>
</g>
<defs>
<linearGradient id="paint0_linear_21_4153" x1="20.6653" y1="8.25297" x2="4.75257" y2="24.1647" gradientUnits="userSpaceOnUse">
<stop stop-color="#00BEFF"/>
<stop offset="0.007" stop-color="#00BEFF"/>
<stop offset="0.26" stop-color="#00BEFF"/>
<stop offset="0.512" stop-color="#00E3FF"/>
<stop offset="0.76" stop-color="#00E3FF"/>
<stop offset="1" stop-color="#00E3FF"/>
</linearGradient>
<linearGradient id="paint1_linear_21_4153" x1="32.0813" y1="19.0104" x2="9.13901" y2="19.0104" gradientUnits="userSpaceOnUse">
<stop stop-color="#FFE000"/>
<stop offset="0.409" stop-color="#FF9C00"/>
<stop offset="0.775" stop-color="#FF9C00"/>
<stop offset="1" stop-color="#FF9C00"/>
</linearGradient>
<linearGradient id="paint2_linear_21_4153" x1="23.5293" y1="21.1303" x2="1.95146" y2="42.7082" gradientUnits="userSpaceOnUse">
<stop stop-color="#FF3A44"/>
<stop offset="1" stop-color="#C31162"/>
</linearGradient>
<linearGradient id="paint3_linear_21_4153" x1="6.88465" y1="0.201467" x2="16.5206" y2="9.83746" gradientUnits="userSpaceOnUse">
<stop stop-color="#32A071"/>
<stop offset="0.069" stop-color="#2DA771"/>
<stop offset="0.476" stop-color="#15CF74"/>
<stop offset="0.801" stop-color="#06E775"/>
<stop offset="1" stop-color="#00F076"/>
</linearGradient>
<clipPath id="clip0_21_4153">
<rect width="127.98" height="37.92" fill="white"/>
</clipPath>
</defs>
</svg>
