<svg width="32" height="25" viewBox="0 0 32 25" fill="none" xmlns="http://www.w3.org/2000/svg">
<path d="M31.3035 4.03125C30.9365 2.50521 30.1318 1.21354 28.7529 0.807292C26.2541 0.0677083 16 0 16 0C16 0 5.74588 0.0677083 3.24706 0.807292C1.86824 1.21354 1.06824 2.50521 0.696471 4.03125C0.0282353 6.79687 0 12.5 0 12.5C0 12.5 0.0282353 18.2031 0.696471 20.9687C1.06353 22.4948 1.86824 23.7865 3.24706 24.1927C5.74588 24.9323 16 25 16 25C16 25 26.2541 24.9323 28.7529 24.1927C30.1318 23.7865 30.9365 22.4948 31.3035 20.9687C31.9718 18.2031 32 12.5 32 12.5C32 12.5 31.9718 6.79687 31.3035 4.03125Z" fill="#FF0033"/>
<path d="M21.1776 12.4993L12.707 7.29102V17.7077" fill="white"/>
</svg>
