<svg width="32" height="32" viewBox="0 0 32 32" fill="none" xmlns="http://www.w3.org/2000/svg">
<path d="M9.29379 3.29183C9.38668 3.19871 9.49703 3.12482 9.61852 3.07441C9.74001 3.024 9.87025 2.99805 10.0018 2.99805C10.1333 2.99805 10.2636 3.024 10.3851 3.07441C10.5065 3.12482 10.6169 3.19871 10.7098 3.29183L22.7098 15.2918C22.8029 15.3847 22.8768 15.4951 22.9272 15.6166C22.9776 15.7381 23.0036 15.8683 23.0036 15.9998C23.0036 16.1314 22.9776 16.2616 22.9272 16.3831C22.8768 16.5046 22.8029 16.6149 22.7098 16.7078L10.7098 28.7078C10.522 28.8956 10.2673 29.0011 10.0018 29.0011C9.73624 29.0011 9.48156 28.8956 9.29379 28.7078C9.10601 28.5201 9.00052 28.2654 9.00052 27.9998C9.00052 27.7343 9.10601 27.4796 9.29379 27.2918L20.5878 15.9998L9.29379 4.70783C9.20066 4.61494 9.12677 4.50459 9.07636 4.3831C9.02595 4.26161 9 4.13137 9 3.99983C9 3.8683 9.02595 3.73806 9.07636 3.61657C9.12677 3.49508 9.20066 3.38473 9.29379 3.29183Z" fill="white"/>
</svg>
