<svg width="18" height="18" viewBox="0 0 18 18" fill="none" xmlns="http://www.w3.org/2000/svg">
<path d="M16.95 15.3008L13.65 12.0008C14.475 10.8008 15 9.37578 15 7.80078C15 3.90078 11.775 0.675781 7.875 0.675781C3.975 0.675781 0.75 3.90078 0.75 7.80078C0.75 11.7008 3.975 14.9258 7.875 14.9258C9.45 14.9258 10.875 14.4008 12.075 13.5758L15.375 16.8758L16.95 15.3008ZM3 7.87578C3 5.17578 5.175 3.00078 7.875 3.00078C10.575 3.00078 12.75 5.17578 12.75 7.87578C12.75 10.5758 10.575 12.7508 7.875 12.7508C5.175 12.7508 3 10.5758 3 7.87578Z" fill="black"/>
</svg>
