<svg width="2" height="5" viewBox="0 0 2 5" fill="none" xmlns="http://www.w3.org/2000/svg">
<path d="M1.39205 3.94385V1.64438C1.39205 1.47207 1.37701 1.32353 1.34694 1.19875C1.31686 1.07397 1.27103 0.977421 1.20945 0.909091C1.1493 0.840761 1.0734 0.806595 0.98174 0.806595C0.897243 0.806595 0.824203 0.836304 0.762621 0.895722C0.701038 0.95514 0.653061 1.03535 0.61869 1.13636C0.584318 1.23737 0.567132 1.35175 0.567132 1.4795H0.0515575C0.0515575 1.28936 0.0737558 1.10517 0.118153 0.926916C0.162549 0.748663 0.226996 0.589721 0.311493 0.450089C0.39599 0.310457 0.496957 0.200535 0.614393 0.120321C0.73183 0.0401069 0.863588 0 1.00967 0C1.18439 0 1.33906 0.0609031 1.47368 0.182709C1.60974 0.304516 1.71643 0.488711 1.79377 0.735294C1.87254 0.978907 1.91192 1.28491 1.91192 1.6533V3.79679C1.91192 4.01664 1.91908 4.2142 1.93341 4.38948C1.94916 4.56179 1.97136 4.71182 2 4.83957V4.91087H1.46939C1.44504 4.79501 1.42571 4.64795 1.41139 4.4697C1.3985 4.28847 1.39205 4.11319 1.39205 3.94385ZM1.46724 1.97861L1.47154 2.6426H1.09989C1.00394 2.6426 0.919441 2.66191 0.846402 2.70053C0.773362 2.73619 0.712496 2.78966 0.663802 2.86096C0.615109 2.93226 0.578589 3.01842 0.554243 3.11943C0.529896 3.22044 0.517723 3.33482 0.517723 3.46257C0.517723 3.59031 0.532044 3.70766 0.560687 3.81462C0.58933 3.9186 0.630863 4.0003 0.685285 4.05971C0.741139 4.11913 0.80845 4.14884 0.887218 4.14884C0.993197 4.14884 1.08557 4.10428 1.16434 4.01515C1.24454 3.92305 1.30755 3.81165 1.35338 3.68093C1.39921 3.54724 1.42356 3.42097 1.42642 3.30214L1.59398 3.77897C1.5768 3.90077 1.54744 4.03149 1.50591 4.17112C1.46438 4.31075 1.40995 4.44444 1.34264 4.57219C1.27676 4.69697 1.19728 4.79947 1.10419 4.87968C1.01253 4.95989 0.906552 5 0.786251 5C0.634443 5 0.499105 4.93761 0.380236 4.81283C0.261368 4.68509 0.168278 4.51426 0.100967 4.30036C0.0336556 4.08348 0 3.83838 0 3.56506C0 3.30957 0.0229144 3.08378 0.0687433 2.8877C0.116004 2.68865 0.184748 2.52228 0.274973 2.38859C0.366631 2.2549 0.478339 2.15389 0.610097 2.08556C0.741855 2.01426 0.892231 1.97861 1.06122 1.97861H1.46724Z" fill="white"/>
</svg>
