<svg width="8" height="11" viewBox="0 0 8 11" fill="none" xmlns="http://www.w3.org/2000/svg">
<g filter="url(#filter0_d_21_4226)">
<path d="M3.28277 5.0742H3.85482C4.13507 5.0742 4.3662 5.02429 4.54821 4.92447C4.73312 4.82152 4.87035 4.68271 4.95991 4.50802C5.05237 4.33021 5.09859 4.13057 5.09859 3.90909C5.09859 3.64706 5.05814 3.42714 4.97725 3.24933C4.89635 3.07152 4.77501 2.93739 4.61322 2.84693C4.45143 2.75646 4.2463 2.71123 3.99783 2.71123C3.77248 2.71123 3.57313 2.75958 3.39978 2.85628C3.22932 2.94987 3.09498 3.084 2.99675 3.25869C2.90141 3.43338 2.85374 3.63926 2.85374 3.87634H2.052C2.052 3.53008 2.1329 3.21502 2.29469 2.93115C2.45648 2.64728 2.68328 2.42112 2.97508 2.25267C3.26977 2.08422 3.61069 2 3.99783 2C4.3792 2 4.71289 2.07331 4.99892 2.21992C5.28494 2.36341 5.5074 2.57865 5.66631 2.86564C5.82521 3.14951 5.90466 3.50357 5.90466 3.92781C5.90466 4.09938 5.8671 4.28342 5.79198 4.47995C5.71975 4.67335 5.60563 4.85428 5.44962 5.02273C5.2965 5.19118 5.09715 5.32999 4.85157 5.43917C4.60599 5.54523 4.3113 5.59826 3.9675 5.59826H3.28277V5.0742ZM3.28277 5.78543V5.26604H3.9675C4.36909 5.26604 4.70134 5.31751 4.96425 5.42045C5.22716 5.5234 5.43373 5.66065 5.58397 5.83222C5.73709 6.00379 5.84399 6.19251 5.90466 6.3984C5.96822 6.60116 6 6.80392 6 7.00668C6 7.32487 5.94944 7.60717 5.84832 7.85361C5.75009 8.10004 5.60997 8.30905 5.42795 8.48062C5.24883 8.65218 5.03792 8.78164 4.79523 8.86898C4.55255 8.95633 4.28819 9 4.00217 9C3.7277 9 3.46912 8.95789 3.22644 8.87366C2.98664 8.78944 2.77429 8.66778 2.58938 8.50869C2.40448 8.34648 2.26002 8.1484 2.15601 7.91444C2.052 7.67736 2 7.40753 2 7.10495H2.80173C2.80173 7.34202 2.8494 7.54947 2.94475 7.72727C3.04298 7.90508 3.18165 8.0439 3.36078 8.14372C3.5428 8.24042 3.75659 8.28877 4.00217 8.28877C4.24774 8.28877 4.45865 8.24354 4.63489 8.15308C4.81401 8.05949 4.95125 7.91912 5.04659 7.73195C5.14482 7.54479 5.19393 7.30927 5.19393 7.0254C5.19393 6.74153 5.13904 6.50914 5.02925 6.32821C4.91947 6.14416 4.76345 6.00847 4.56121 5.92112C4.36186 5.83066 4.1264 5.78543 3.85482 5.78543H3.28277Z" fill="#EEEEEE"/>
</g>
<defs>
<filter id="filter0_d_21_4226" x="0" y="0" width="8" height="11" filterUnits="userSpaceOnUse" color-interpolation-filters="sRGB">
<feFlood flood-opacity="0" result="BackgroundImageFix"/>
<feColorMatrix in="SourceAlpha" type="matrix" values="0 0 0 0 0 0 0 0 0 0 0 0 0 0 0 0 0 0 127 0" result="hardAlpha"/>
<feOffset/>
<feGaussianBlur stdDeviation="1"/>
<feComposite in2="hardAlpha" operator="out"/>
<feColorMatrix type="matrix" values="0 0 0 0 0 0 0 0 0 0 0 0 0 0 0 0 0 0 0.5 0"/>
<feBlend mode="normal" in2="BackgroundImageFix" result="effect1_dropShadow_21_4226"/>
<feBlend mode="normal" in="SourceGraphic" in2="effect1_dropShadow_21_4226" result="shape"/>
</filter>
</defs>
</svg>
