<svg width="8" height="12" viewBox="0 0 8 12" fill="none" xmlns="http://www.w3.org/2000/svg">
<g filter="url(#filter0_d_21_4207)">
<path d="M3.83514 7.10862L5.141 2H6L4.11714 8.57801C4.07375 8.71845 4.01591 8.86943 3.9436 9.03094C3.87419 9.19596 3.78453 9.35221 3.67462 9.49967C3.56471 9.64714 3.43167 9.76651 3.27549 9.8578C3.1222 9.9526 2.93854 10 2.72451 10C2.66088 10 2.5799 9.98947 2.48156 9.9684C2.38322 9.94733 2.31381 9.92978 2.27332 9.91573L2.26898 9.12574C2.29212 9.12925 2.32827 9.13276 2.37744 9.13627C2.4295 9.1433 2.46565 9.14681 2.4859 9.14681C2.66811 9.14681 2.82285 9.11696 2.95011 9.05727C3.07737 9.0011 3.18438 8.90454 3.27115 8.76761C3.36081 8.63419 3.43745 8.44986 3.50108 8.21461L3.83514 7.10862ZM2.87636 2L4.09544 6.42396L4.30369 7.45095L3.72668 7.80908L2 2H2.87636Z" fill="#EEEEEE"/>
</g>
<defs>
<filter id="filter0_d_21_4207" x="0" y="0" width="8" height="12" filterUnits="userSpaceOnUse" color-interpolation-filters="sRGB">
<feFlood flood-opacity="0" result="BackgroundImageFix"/>
<feColorMatrix in="SourceAlpha" type="matrix" values="0 0 0 0 0 0 0 0 0 0 0 0 0 0 0 0 0 0 127 0" result="hardAlpha"/>
<feOffset/>
<feGaussianBlur stdDeviation="1"/>
<feComposite in2="hardAlpha" operator="out"/>
<feColorMatrix type="matrix" values="0 0 0 0 0 0 0 0 0 0 0 0 0 0 0 0 0 0 0.5 0"/>
<feBlend mode="normal" in2="BackgroundImageFix" result="effect1_dropShadow_21_4207"/>
<feBlend mode="normal" in="SourceGraphic" in2="effect1_dropShadow_21_4207" result="shape"/>
</filter>
</defs>
</svg>
