<svg width="8" height="10" viewBox="0 0 8 10" fill="none" xmlns="http://www.w3.org/2000/svg">
<g filter="url(#filter0_d_21_4213)">
<path d="M5.00112 6.90374V3.92513C5.00112 3.69697 4.9623 3.49911 4.88466 3.33155C4.81 3.16043 4.69653 3.02852 4.54423 2.93583C4.39194 2.84314 4.20381 2.79679 3.97984 2.79679C3.77081 2.79679 3.58716 2.83957 3.42889 2.92513C3.27361 3.0107 3.15118 3.12299 3.06159 3.26203C2.97499 3.40107 2.93169 3.5508 2.93169 3.71123H2.10302C2.10302 3.50446 2.14782 3.29947 2.2374 3.09626C2.32699 2.89305 2.45539 2.70945 2.62262 2.54545C2.79283 2.3779 2.99589 2.24599 3.2318 2.14973C3.4707 2.04991 3.73647 2 4.02912 2C4.38149 2 4.69205 2.0713 4.96081 2.2139C5.23255 2.35651 5.44457 2.57219 5.59686 2.86096C5.75215 3.14617 5.82979 3.50446 5.82979 3.93583V6.63102C5.82979 6.82353 5.84323 7.02852 5.8701 7.24599C5.89996 7.46346 5.94326 7.65062 6 7.80749V7.89305H5.1355C5.09369 7.77897 5.06084 7.62745 5.03695 7.4385C5.01306 7.24599 5.00112 7.06774 5.00112 6.90374ZM5.14446 4.38503L5.15342 5.08021H4.31579C4.07988 5.08021 3.86935 5.10339 3.68421 5.14973C3.49907 5.19251 3.34378 5.25847 3.21837 5.34759C3.09295 5.43672 2.99739 5.54902 2.93169 5.68449C2.86599 5.8164 2.83315 5.97148 2.83315 6.14973C2.83315 6.33155 2.86749 6.49733 2.93617 6.64706C3.00485 6.79679 3.10788 6.91622 3.24524 7.00535C3.38559 7.09091 3.5573 7.13369 3.76036 7.13369C4.01418 7.13369 4.23815 7.06952 4.43225 6.94118C4.62635 6.81283 4.78014 6.65597 4.89362 6.47059C5.01008 6.2852 5.07279 6.10517 5.08175 5.93048L5.43561 6.40642C5.41471 6.55615 5.35797 6.72193 5.2654 6.90374C5.17283 7.08556 5.0489 7.26025 4.89362 7.42781C4.74132 7.5918 4.55916 7.72905 4.34714 7.83957C4.13811 7.94652 3.9022 8 3.63942 8C3.31094 8 3.02277 7.92335 2.77492 7.77005C2.53005 7.61676 2.33893 7.41176 2.20157 7.15508C2.06719 6.89483 2 6.60428 2 6.28342C2 5.97326 2.05077 5.70053 2.1523 5.46524C2.25383 5.22638 2.40015 5.02852 2.59127 4.87166C2.78238 4.71123 3.01232 4.59002 3.28108 4.50802C3.54983 4.42602 3.84994 4.38503 4.18141 4.38503H5.14446Z" fill="#EEEEEE"/>
</g>
<defs>
<filter id="filter0_d_21_4213" x="0" y="0" width="8" height="10" filterUnits="userSpaceOnUse" color-interpolation-filters="sRGB">
<feFlood flood-opacity="0" result="BackgroundImageFix"/>
<feColorMatrix in="SourceAlpha" type="matrix" values="0 0 0 0 0 0 0 0 0 0 0 0 0 0 0 0 0 0 127 0" result="hardAlpha"/>
<feOffset/>
<feGaussianBlur stdDeviation="1"/>
<feComposite in2="hardAlpha" operator="out"/>
<feColorMatrix type="matrix" values="0 0 0 0 0 0 0 0 0 0 0 0 0 0 0 0 0 0 0.5 0"/>
<feBlend mode="normal" in2="BackgroundImageFix" result="effect1_dropShadow_21_4213"/>
<feBlend mode="normal" in="SourceGraphic" in2="effect1_dropShadow_21_4213" result="shape"/>
</filter>
</defs>
</svg>
