<svg width="3" height="6" viewBox="0 0 3 6" fill="none" xmlns="http://www.w3.org/2000/svg">
<path d="M2.95638 1.16313V1.93563H0V1.16313H2.95638ZM0.852989 0H2.021V4.59985C2.021 4.74616 2.04362 4.85881 2.08885 4.93782C2.13732 5.0139 2.20355 5.06511 2.28756 5.09144C2.37157 5.11778 2.47011 5.13094 2.5832 5.13094C2.66397 5.13094 2.74152 5.12655 2.81583 5.11778C2.89015 5.109 2.94992 5.10022 2.99515 5.09144L3 5.89905C2.90307 5.92538 2.78998 5.94879 2.66074 5.96928C2.53473 5.98976 2.38934 6 2.22456 6C1.95638 6 1.7189 5.95757 1.51212 5.87271C1.30533 5.78493 1.14378 5.64301 1.02746 5.44696C0.911147 5.25091 0.852989 4.99049 0.852989 4.66569V0Z" fill="white"/>
</svg>
