<svg width="8" height="10" viewBox="0 0 8 10" fill="none" xmlns="http://www.w3.org/2000/svg">
<g filter="url(#filter0_d_21_4231)">
<path d="M2.86957 3.36661V8H2V2.10889H2.82256L2.86957 3.36661ZM2.66275 4.83122L2.30082 4.81488C2.30396 4.41198 2.35566 4.03993 2.45593 3.69873C2.55621 3.3539 2.69722 3.05445 2.87897 2.80036C3.06071 2.54628 3.27693 2.35027 3.52761 2.21234C3.78143 2.07078 4.06189 2 4.36898 2C4.61966 2 4.84528 2.03993 5.04583 2.11978C5.24638 2.19601 5.41716 2.31942 5.55817 2.49002C5.70231 2.66062 5.81199 2.88203 5.88719 3.15426C5.9624 3.42287 6 3.75136 6 4.13975V8H5.12573V4.12886C5.12573 3.82033 5.08656 3.5735 5.00823 3.38838C4.92989 3.19964 4.81551 3.06352 4.6651 2.98004C4.51469 2.89292 4.32981 2.84936 4.11046 2.84936C3.89424 2.84936 3.69683 2.902 3.51821 3.00726C3.34273 3.11252 3.19076 3.25771 3.06228 3.44283C2.93694 3.62795 2.83823 3.84029 2.76616 4.07985C2.69722 4.31579 2.66275 4.56624 2.66275 4.83122Z" fill="#EEEEEE"/>
</g>
<defs>
<filter id="filter0_d_21_4231" x="0" y="0" width="8" height="10" filterUnits="userSpaceOnUse" color-interpolation-filters="sRGB">
<feFlood flood-opacity="0" result="BackgroundImageFix"/>
<feColorMatrix in="SourceAlpha" type="matrix" values="0 0 0 0 0 0 0 0 0 0 0 0 0 0 0 0 0 0 127 0" result="hardAlpha"/>
<feOffset/>
<feGaussianBlur stdDeviation="1"/>
<feComposite in2="hardAlpha" operator="out"/>
<feColorMatrix type="matrix" values="0 0 0 0 0 0 0 0 0 0 0 0 0 0 0 0 0 0 0.5 0"/>
<feBlend mode="normal" in2="BackgroundImageFix" result="effect1_dropShadow_21_4231"/>
<feBlend mode="normal" in="SourceGraphic" in2="effect1_dropShadow_21_4231" result="shape"/>
</filter>
</defs>
</svg>
