<svg width="9" height="11" viewBox="0 0 9 11" fill="none" xmlns="http://www.w3.org/2000/svg">
<g filter="url(#filter0_d_21_4224)">
<path d="M4.56202 6.25481H2.70611V5.5H4.56202C4.92144 5.5 5.21247 5.44231 5.43511 5.32692C5.65776 5.21154 5.81997 5.05128 5.92176 4.84615C6.02672 4.64103 6.0792 4.40705 6.0792 4.14423C6.0792 3.90385 6.02672 3.67788 5.92176 3.46635C5.81997 3.25481 5.65776 3.08494 5.43511 2.95673C5.21247 2.82532 4.92144 2.75962 4.56202 2.75962H2.9208V9H2V2H4.56202C5.08683 2 5.53053 2.09135 5.89313 2.27404C6.25573 2.45673 6.53085 2.70994 6.71851 3.03365C6.90617 3.35417 7 3.72115 7 4.13462C7 4.58333 6.90617 4.96635 6.71851 5.28365C6.53085 5.60096 6.25573 5.84295 5.89313 6.00962C5.53053 6.17308 5.08683 6.25481 4.56202 6.25481Z" fill="#EEEEEE"/>
</g>
<defs>
<filter id="filter0_d_21_4224" x="0" y="0" width="9" height="11" filterUnits="userSpaceOnUse" color-interpolation-filters="sRGB">
<feFlood flood-opacity="0" result="BackgroundImageFix"/>
<feColorMatrix in="SourceAlpha" type="matrix" values="0 0 0 0 0 0 0 0 0 0 0 0 0 0 0 0 0 0 127 0" result="hardAlpha"/>
<feOffset/>
<feGaussianBlur stdDeviation="1"/>
<feComposite in2="hardAlpha" operator="out"/>
<feColorMatrix type="matrix" values="0 0 0 0 0 0 0 0 0 0 0 0 0 0 0 0 0 0 0.5 0"/>
<feBlend mode="normal" in2="BackgroundImageFix" result="effect1_dropShadow_21_4224"/>
<feBlend mode="normal" in="SourceGraphic" in2="effect1_dropShadow_21_4224" result="shape"/>
</filter>
</defs>
</svg>
