<svg width="10" height="10" viewBox="0 0 10 10" fill="none" xmlns="http://www.w3.org/2000/svg">
<g filter="url(#filter0_d_21_4221)">
<path d="M2.73518 3.27949V8H2V2.10889H2.69565L2.73518 3.27949ZM2.58498 4.83122L2.24506 4.81488C2.24769 4.41198 2.2859 4.03993 2.35968 3.69873C2.43347 3.3539 2.54282 3.05445 2.68775 2.80036C2.83267 2.54628 3.01318 2.35027 3.22925 2.21234C3.44532 2.07078 3.69565 2 3.98024 2C4.1805 2 4.36495 2.03993 4.5336 2.11978C4.70224 2.19601 4.84848 2.3176 4.97233 2.48457C5.09618 2.65154 5.19236 2.8657 5.26087 3.12704C5.32938 3.38838 5.36364 3.70417 5.36364 4.07441V8H4.63241V4.12341C4.63241 3.81488 4.5942 3.56806 4.51779 3.38294C4.44401 3.19782 4.3386 3.06352 4.20158 2.98004C4.06456 2.89292 3.90382 2.84936 3.71937 2.84936C3.50329 2.84936 3.32279 2.902 3.17787 3.00726C3.03294 3.11252 2.917 3.25771 2.83004 3.44283C2.74308 3.62795 2.67984 3.84029 2.64032 4.07985C2.60343 4.31579 2.58498 4.56624 2.58498 4.83122ZM5.35573 4.27586L4.86561 4.48276C4.86825 4.15971 4.90646 3.84936 4.98024 3.55172C5.05665 3.25408 5.16601 2.98911 5.3083 2.75681C5.45323 2.5245 5.63109 2.3412 5.8419 2.2069C6.0527 2.06897 6.29381 2 6.56522 2C6.79447 2 6.99736 2.04174 7.17391 2.12523C7.3531 2.20871 7.50329 2.33757 7.62451 2.5118C7.74835 2.6824 7.8419 2.902 7.90514 3.1706C7.96838 3.4392 8 3.75862 8 4.12886V8H7.26482V4.11797C7.26482 3.78766 7.22661 3.53176 7.1502 3.35027C7.07642 3.16515 6.97101 3.0363 6.83399 2.9637C6.6996 2.88748 6.53887 2.84936 6.35178 2.84936C6.19104 2.84936 6.04875 2.88748 5.9249 2.9637C5.80105 3.03993 5.69697 3.14519 5.61265 3.27949C5.52833 3.41016 5.46377 3.5608 5.41897 3.7314C5.37681 3.902 5.35573 4.08348 5.35573 4.27586Z" fill="#EEEEEE"/>
</g>
<defs>
<filter id="filter0_d_21_4221" x="0" y="0" width="10" height="10" filterUnits="userSpaceOnUse" color-interpolation-filters="sRGB">
<feFlood flood-opacity="0" result="BackgroundImageFix"/>
<feColorMatrix in="SourceAlpha" type="matrix" values="0 0 0 0 0 0 0 0 0 0 0 0 0 0 0 0 0 0 127 0" result="hardAlpha"/>
<feOffset/>
<feGaussianBlur stdDeviation="1"/>
<feComposite in2="hardAlpha" operator="out"/>
<feColorMatrix type="matrix" values="0 0 0 0 0 0 0 0 0 0 0 0 0 0 0 0 0 0 0.5 0"/>
<feBlend mode="normal" in2="BackgroundImageFix" result="effect1_dropShadow_21_4221"/>
<feBlend mode="normal" in="SourceGraphic" in2="effect1_dropShadow_21_4221" result="shape"/>
</filter>
</defs>
</svg>
