<svg width="5" height="11" viewBox="0 0 5 11" fill="none" xmlns="http://www.w3.org/2000/svg">
<g filter="url(#filter0_d_21_4229)">
<path d="M2.91324 3.86856V9H2.06393V3.86856H2.91324ZM2 2.50745C2 2.36518 2.0411 2.24503 2.12329 2.14702C2.20852 2.04901 2.33333 2 2.49772 2C2.65906 2 2.78234 2.04901 2.86758 2.14702C2.95586 2.24503 3 2.36518 3 2.50745C3 2.64341 2.95586 2.76039 2.86758 2.8584C2.78234 2.95325 2.65906 3.00068 2.49772 3.00068C2.33333 3.00068 2.20852 2.95325 2.12329 2.8584C2.0411 2.76039 2 2.64341 2 2.50745Z" fill="#EEEEEE"/>
</g>
<defs>
<filter id="filter0_d_21_4229" x="0" y="0" width="5" height="11" filterUnits="userSpaceOnUse" color-interpolation-filters="sRGB">
<feFlood flood-opacity="0" result="BackgroundImageFix"/>
<feColorMatrix in="SourceAlpha" type="matrix" values="0 0 0 0 0 0 0 0 0 0 0 0 0 0 0 0 0 0 127 0" result="hardAlpha"/>
<feOffset/>
<feGaussianBlur stdDeviation="1"/>
<feComposite in2="hardAlpha" operator="out"/>
<feColorMatrix type="matrix" values="0 0 0 0 0 0 0 0 0 0 0 0 0 0 0 0 0 0 0.5 0"/>
<feBlend mode="normal" in2="BackgroundImageFix" result="effect1_dropShadow_21_4229"/>
<feBlend mode="normal" in="SourceGraphic" in2="effect1_dropShadow_21_4229" result="shape"/>
</filter>
</defs>
</svg>
