<svg width="8" height="9" viewBox="0 0 8 9" fill="none" xmlns="http://www.w3.org/2000/svg">
<g filter="url(#filter0_d_21_4259)">
<path d="M5.07608 5.67981C5.07608 5.57955 5.05897 5.49042 5.02475 5.41243C4.99297 5.33445 4.93553 5.26315 4.85243 5.19853C4.76932 5.13391 4.652 5.07152 4.50046 5.01136C4.35136 4.94898 4.16071 4.88547 3.92851 4.82086C3.6743 4.74955 3.43966 4.67045 3.22456 4.58356C3.01192 4.49443 2.82615 4.39193 2.66728 4.27607C2.5084 4.15798 2.38497 4.02317 2.29698 3.87166C2.20898 3.71791 2.16499 3.54078 2.16499 3.34024C2.16499 3.14193 2.2102 2.96145 2.30064 2.7988C2.39352 2.63614 2.52429 2.49577 2.69294 2.37767C2.86404 2.25735 3.06569 2.16488 3.29789 2.10027C3.53009 2.03342 3.78674 2 4.06783 2C4.46379 2 4.80477 2.06684 5.09074 2.20053C5.37916 2.33422 5.60037 2.51359 5.75435 2.73864C5.91079 2.96368 5.989 3.21212 5.989 3.48396H5.07608C5.07608 3.32353 5.03819 3.18204 4.96242 3.05949C4.88909 2.93471 4.77666 2.83668 4.62511 2.76537C4.47602 2.69407 4.28659 2.65842 4.05683 2.65842C3.83929 2.65842 3.65842 2.6885 3.51421 2.74866C3.37 2.80882 3.26245 2.89015 3.19157 2.99265C3.12068 3.09514 3.08524 3.21101 3.08524 3.34024C3.08524 3.4316 3.10846 3.51515 3.1549 3.59091C3.20134 3.66444 3.27223 3.73351 3.36755 3.79813C3.46288 3.86052 3.58265 3.91956 3.72686 3.97527C3.87107 4.03097 4.04094 4.08445 4.23648 4.1357C4.53223 4.21591 4.7901 4.30504 5.01008 4.40307C5.23006 4.49889 5.41338 4.60807 5.56004 4.73061C5.70669 4.85316 5.81668 4.99242 5.89001 5.1484C5.96334 5.30214 6 5.47705 6 5.67313C6 5.87812 5.95478 6.06306 5.86434 6.22794C5.77391 6.3906 5.64436 6.52986 5.47571 6.64572C5.3095 6.75936 5.10907 6.84737 4.87443 6.90976C4.64222 6.96992 4.38313 7 4.09716 7C3.84051 7 3.58753 6.96881 3.33822 6.90642C3.09135 6.84403 2.86648 6.74933 2.66361 6.62233C2.46074 6.49309 2.29942 6.33266 2.17965 6.14104C2.05988 5.94719 2 5.72103 2 5.46257H2.92026C2.92026 5.62077 2.94959 5.75557 3.00825 5.86698C3.06936 5.97839 3.15368 6.06974 3.26123 6.14104C3.36877 6.21012 3.49343 6.26136 3.6352 6.29479C3.77941 6.32821 3.93339 6.34492 4.09716 6.34492C4.31225 6.34492 4.4919 6.31707 4.63611 6.26136C4.78277 6.20566 4.89276 6.12767 4.96609 6.02741C5.03941 5.92714 5.07608 5.81127 5.07608 5.67981Z" fill="#EEEEEE"/>
</g>
<defs>
<filter id="filter0_d_21_4259" x="0" y="0" width="8" height="9" filterUnits="userSpaceOnUse" color-interpolation-filters="sRGB">
<feFlood flood-opacity="0" result="BackgroundImageFix"/>
<feColorMatrix in="SourceAlpha" type="matrix" values="0 0 0 0 0 0 0 0 0 0 0 0 0 0 0 0 0 0 127 0" result="hardAlpha"/>
<feOffset/>
<feGaussianBlur stdDeviation="1"/>
<feComposite in2="hardAlpha" operator="out"/>
<feColorMatrix type="matrix" values="0 0 0 0 0 0 0 0 0 0 0 0 0 0 0 0 0 0 0.5 0"/>
<feBlend mode="normal" in2="BackgroundImageFix" result="effect1_dropShadow_21_4259"/>
<feBlend mode="normal" in="SourceGraphic" in2="effect1_dropShadow_21_4259" result="shape"/>
</filter>
</defs>
</svg>
