<svg width="4" height="5" viewBox="0 0 4 5" fill="none" xmlns="http://www.w3.org/2000/svg">
<path d="M0 2.55348V2.45098C0 2.10339 0.045063 1.78105 0.135189 1.48396C0.225315 1.1839 0.355202 0.923945 0.524851 0.7041C0.69715 0.481283 0.906561 0.308972 1.15308 0.187166C1.40225 0.0623886 1.68323 0 1.99602 0C2.31146 0 2.59245 0.0623886 2.83897 0.187166C3.08814 0.308972 3.29887 0.481283 3.47117 0.7041C3.64347 0.923945 3.77469 1.1839 3.86481 1.48396C3.95494 1.78105 4 2.10339 4 2.45098V2.55348C4 2.90107 3.95494 3.22341 3.86481 3.5205C3.77469 3.81759 3.64347 4.07754 3.47117 4.30036C3.29887 4.5202 3.08946 4.69251 2.84294 4.81729C2.59642 4.9391 2.31677 5 2.00398 5C1.68854 5 1.40623 4.9391 1.15706 4.81729C0.910537 4.69251 0.701127 4.5202 0.528827 4.30036C0.356527 4.07754 0.225315 3.81759 0.135189 3.5205C0.045063 3.22341 0 2.90107 0 2.55348ZM0.95825 2.45098V2.55348C0.95825 2.77035 0.978131 2.97534 1.01789 3.16845C1.05765 3.36156 1.11995 3.5309 1.20477 3.67647C1.2896 3.82204 1.39828 3.93642 1.53082 4.01961C1.66335 4.10279 1.82107 4.14438 2.00398 4.14438C2.18158 4.14438 2.33532 4.10279 2.46521 4.01961C2.59775 3.93642 2.70643 3.82204 2.79125 3.67647C2.87608 3.5309 2.93837 3.36156 2.97813 3.16845C3.02054 2.97534 3.04175 2.77035 3.04175 2.55348V2.45098C3.04175 2.23708 3.02054 2.03506 2.97813 1.84492C2.93837 1.65181 2.87475 1.48099 2.78728 1.33244C2.70245 1.1839 2.59377 1.06803 2.46123 0.984848C2.33135 0.898693 2.17628 0.855615 1.99602 0.855615C1.81577 0.855615 1.65938 0.898693 1.52684 0.984848C1.39695 1.06803 1.2896 1.1839 1.20477 1.33244C1.11995 1.48099 1.05765 1.65181 1.01789 1.84492C0.978131 2.03506 0.95825 2.23708 0.95825 2.45098Z" fill="white"/>
</svg>
