<svg width="6" height="8" viewBox="0 0 6 8" fill="none" xmlns="http://www.w3.org/2000/svg">
<g filter="url(#filter0_d_21_4255)">
<path d="M3.09129 6C2.9234 6 2.7716 5.95365 2.63589 5.86096C2.50157 5.76589 2.38685 5.63399 2.29171 5.46524C2.19797 5.29649 2.12592 5.09804 2.07555 4.86988C2.02518 4.64171 2 4.39572 2 4.13191V3.9893C2 3.68746 2.02588 3.41414 2.07765 3.16934C2.12942 2.92454 2.20147 2.71539 2.29381 2.54189C2.38615 2.36601 2.49528 2.23173 2.6212 2.13904C2.74711 2.04635 2.88353 2 3.03043 2C3.19272 2 3.33473 2.04635 3.45645 2.13904C3.57817 2.23173 3.67891 2.36245 3.75866 2.53119C3.8398 2.69756 3.89997 2.89602 3.93914 3.12656C3.97971 3.3571 4 3.61141 4 3.88948V4.25668H2.24554V3.63993H3.50052V3.57219C3.49773 3.41771 3.47954 3.27273 3.44596 3.13725C3.41378 3.00178 3.36411 2.89245 3.29696 2.80927C3.2298 2.72608 3.14026 2.68449 3.02833 2.68449C2.94439 2.68449 2.86953 2.71539 2.80378 2.77718C2.73942 2.8366 2.68555 2.92335 2.64218 3.03743C2.59881 3.15152 2.56523 3.28936 2.54145 3.45098C2.51906 3.61022 2.50787 3.78966 2.50787 3.9893V4.13191C2.50787 4.30065 2.52116 4.45752 2.54774 4.6025C2.57573 4.7451 2.6163 4.86988 2.66946 4.97683C2.72263 5.08378 2.78699 5.16815 2.86254 5.22995C2.93809 5.28936 3.02413 5.31907 3.12067 5.31907C3.24239 5.31907 3.35082 5.27748 3.44596 5.1943C3.5411 5.11111 3.62364 4.99346 3.6936 4.84135L3.96013 5.27986C3.91116 5.40107 3.8475 5.51753 3.76915 5.62923C3.6908 5.73856 3.59496 5.82769 3.48164 5.89661C3.36971 5.96554 3.23959 6 3.09129 6Z" fill="#EEEEEE"/>
</g>
<defs>
<filter id="filter0_d_21_4255" x="0" y="0" width="6" height="8" filterUnits="userSpaceOnUse" color-interpolation-filters="sRGB">
<feFlood flood-opacity="0" result="BackgroundImageFix"/>
<feColorMatrix in="SourceAlpha" type="matrix" values="0 0 0 0 0 0 0 0 0 0 0 0 0 0 0 0 0 0 127 0" result="hardAlpha"/>
<feOffset/>
<feGaussianBlur stdDeviation="1"/>
<feComposite in2="hardAlpha" operator="out"/>
<feColorMatrix type="matrix" values="0 0 0 0 0 0 0 0 0 0 0 0 0 0 0 0 0 0 0.5 0"/>
<feBlend mode="normal" in2="BackgroundImageFix" result="effect1_dropShadow_21_4255"/>
<feBlend mode="normal" in="SourceGraphic" in2="effect1_dropShadow_21_4255" result="shape"/>
</filter>
</defs>
</svg>
