<svg width="8" height="11" viewBox="0 0 8 11" fill="none" xmlns="http://www.w3.org/2000/svg">
<g filter="url(#filter0_d_21_4241)">
<path d="M5.26654 7.18449C5.26654 7.0254 5.24638 6.88503 5.20605 6.76337C5.16824 6.63859 5.10019 6.52629 5.00189 6.42647C4.90611 6.32665 4.77253 6.23151 4.60113 6.14104C4.43226 6.05058 4.21802 5.95856 3.95841 5.86497C3.6862 5.76515 3.44045 5.65441 3.22117 5.53275C3.00189 5.40798 2.81411 5.26604 2.65785 5.10695C2.50158 4.94786 2.38185 4.76537 2.29868 4.55949C2.2155 4.35361 2.17391 4.11809 2.17391 3.85294C2.17391 3.58779 2.21802 3.34291 2.30624 3.11832C2.39445 2.89372 2.52048 2.69875 2.68431 2.53342C2.85066 2.36497 3.04852 2.23396 3.27788 2.14037C3.50725 2.04679 3.76307 2 4.04537 2C4.45873 2 4.80907 2.09826 5.09641 2.29479C5.38626 2.48819 5.60681 2.74242 5.75803 3.05749C5.90926 3.36943 5.98488 3.70321 5.98488 4.05882H5.25898C5.25898 3.80303 5.21487 3.57687 5.12665 3.38035C5.03844 3.1807 4.90485 3.02473 4.7259 2.91243C4.54694 2.79701 4.3201 2.7393 4.04537 2.7393C3.78576 2.7393 3.57152 2.78766 3.40265 2.88436C3.23377 2.98106 3.10775 3.11208 3.02457 3.27741C2.94392 3.44274 2.90359 3.63146 2.90359 3.84358C2.90359 3.98708 2.92754 4.11809 2.97543 4.23663C3.02583 4.35205 3.10271 4.45967 3.20605 4.55949C3.31191 4.65931 3.44549 4.75134 3.60681 4.83556C3.77064 4.91979 3.96597 5.00089 4.19282 5.07888C4.50536 5.18806 4.77505 5.30971 5.00189 5.44385C5.22873 5.57799 5.41525 5.72928 5.56144 5.89773C5.71014 6.06306 5.81979 6.25178 5.89036 6.4639C5.96345 6.67291 6 6.90998 6 7.17513C6 7.45276 5.95463 7.70388 5.86389 7.92848C5.77316 8.15308 5.64335 8.34492 5.47448 8.50401C5.30561 8.6631 5.10271 8.78632 4.86578 8.87366C4.63138 8.95789 4.36925 9 4.0794 9C3.82483 9 3.57404 8.95633 3.32703 8.86898C3.08255 8.78164 2.85948 8.65062 2.65785 8.47594C2.45873 8.30125 2.29868 8.08601 2.17769 7.83021C2.05923 7.5713 2 7.27184 2 6.93182H2.7259C2.7259 7.16578 2.76244 7.36698 2.83554 7.53543C2.90863 7.70076 3.00819 7.83801 3.13422 7.94719C3.26276 8.05637 3.40769 8.13748 3.569 8.19051C3.73283 8.24042 3.90296 8.26537 4.0794 8.26537C4.33396 8.26537 4.54946 8.2217 4.7259 8.13436C4.90233 8.04701 5.03592 7.92224 5.12665 7.76003C5.21991 7.59782 5.26654 7.40597 5.26654 7.18449Z" fill="#EEEEEE"/>
</g>
<defs>
<filter id="filter0_d_21_4241" x="0" y="0" width="8" height="11" filterUnits="userSpaceOnUse" color-interpolation-filters="sRGB">
<feFlood flood-opacity="0" result="BackgroundImageFix"/>
<feColorMatrix in="SourceAlpha" type="matrix" values="0 0 0 0 0 0 0 0 0 0 0 0 0 0 0 0 0 0 127 0" result="hardAlpha"/>
<feOffset/>
<feGaussianBlur stdDeviation="1"/>
<feComposite in2="hardAlpha" operator="out"/>
<feColorMatrix type="matrix" values="0 0 0 0 0 0 0 0 0 0 0 0 0 0 0 0 0 0 0.5 0"/>
<feBlend mode="normal" in2="BackgroundImageFix" result="effect1_dropShadow_21_4241"/>
<feBlend mode="normal" in="SourceGraphic" in2="effect1_dropShadow_21_4241" result="shape"/>
</filter>
</defs>
</svg>
