<svg width="7" height="10" viewBox="0 0 7 10" fill="none" xmlns="http://www.w3.org/2000/svg">
<g filter="url(#filter0_d_21_4238)">
<path d="M3.06119 3.03448V8H2V2.10889H3.0325L3.06119 3.03448ZM5 2.07623L4.99426 3.0127C4.90631 2.99456 4.82218 2.98367 4.74187 2.98004C4.66539 2.97278 4.57744 2.96915 4.47801 2.96915C4.23327 2.96915 4.01721 3.00544 3.82983 3.07804C3.64245 3.15064 3.48375 3.25227 3.35373 3.38294C3.22371 3.51361 3.12046 3.66969 3.04398 3.85118C2.97132 4.02904 2.92352 4.22505 2.90057 4.4392L2.60229 4.60254C2.60229 4.24682 2.63862 3.91289 2.71128 3.60073C2.78776 3.28857 2.9044 3.0127 3.06119 2.77314C3.21797 2.52995 3.41683 2.3412 3.65774 2.2069C3.90249 2.06897 4.19312 2 4.52964 2C4.60612 2 4.69407 2.00907 4.7935 2.02722C4.89293 2.04174 4.96176 2.05808 5 2.07623Z" fill="#EEEEEE"/>
</g>
<defs>
<filter id="filter0_d_21_4238" x="0" y="0" width="7" height="10" filterUnits="userSpaceOnUse" color-interpolation-filters="sRGB">
<feFlood flood-opacity="0" result="BackgroundImageFix"/>
<feColorMatrix in="SourceAlpha" type="matrix" values="0 0 0 0 0 0 0 0 0 0 0 0 0 0 0 0 0 0 127 0" result="hardAlpha"/>
<feOffset/>
<feGaussianBlur stdDeviation="1"/>
<feComposite in2="hardAlpha" operator="out"/>
<feColorMatrix type="matrix" values="0 0 0 0 0 0 0 0 0 0 0 0 0 0 0 0 0 0 0.5 0"/>
<feBlend mode="normal" in2="BackgroundImageFix" result="effect1_dropShadow_21_4238"/>
<feBlend mode="normal" in="SourceGraphic" in2="effect1_dropShadow_21_4238" result="shape"/>
</filter>
</defs>
</svg>
