<svg width="7" height="11" viewBox="0 0 7 11" fill="none" xmlns="http://www.w3.org/2000/svg">
<g filter="url(#filter0_d_21_4214)">
<path d="M4.37323 6.88957V2H5V6.88957C5 7.34485 4.9358 7.729 4.8074 8.04201C4.679 8.35501 4.50163 8.59372 4.2753 8.75813C4.05114 8.91938 3.79325 9 3.50163 9C3.21001 9 2.95103 8.92728 2.7247 8.78184C2.49837 8.6364 2.321 8.41509 2.1926 8.11789C2.0642 7.82069 2 7.44603 2 6.9939H2.63003C2.63003 7.28478 2.66703 7.52349 2.74102 7.71003C2.81502 7.89657 2.9173 8.0341 3.04788 8.12263C3.18063 8.21116 3.33188 8.25542 3.50163 8.25542C3.66703 8.25542 3.81502 8.20483 3.94559 8.10366C4.07835 7.99932 4.18281 7.84598 4.25898 7.64363C4.33515 7.43812 4.37323 7.18677 4.37323 6.88957Z" fill="#EEEEEE"/>
</g>
<defs>
<filter id="filter0_d_21_4214" x="0" y="0" width="7" height="11" filterUnits="userSpaceOnUse" color-interpolation-filters="sRGB">
<feFlood flood-opacity="0" result="BackgroundImageFix"/>
<feColorMatrix in="SourceAlpha" type="matrix" values="0 0 0 0 0 0 0 0 0 0 0 0 0 0 0 0 0 0 127 0" result="hardAlpha"/>
<feOffset/>
<feGaussianBlur stdDeviation="1"/>
<feComposite in2="hardAlpha" operator="out"/>
<feColorMatrix type="matrix" values="0 0 0 0 0 0 0 0 0 0 0 0 0 0 0 0 0 0 0.5 0"/>
<feBlend mode="normal" in2="BackgroundImageFix" result="effect1_dropShadow_21_4214"/>
<feBlend mode="normal" in="SourceGraphic" in2="effect1_dropShadow_21_4214" result="shape"/>
</filter>
</defs>
</svg>
