<svg width="9" height="11" viewBox="0 0 9 11" fill="none" xmlns="http://www.w3.org/2000/svg">
<g filter="url(#filter0_d_21_4202)">
<path d="M2 2H4.28004C4.79722 2 5.234 2.08013 5.59035 2.24038C5.94986 2.40064 6.22264 2.63782 6.4087 2.95192C6.59792 3.26282 6.69253 3.64583 6.69253 4.10096C6.69253 4.42147 6.62788 4.71474 6.49858 4.98077C6.37244 5.24359 6.18953 5.46795 5.94986 5.65385C5.71334 5.83654 5.42952 5.97276 5.09839 6.0625L4.84295 6.16346H2.70009L2.69063 5.40865H4.30842C4.63639 5.40865 4.90918 5.35096 5.12677 5.23558C5.34437 5.11699 5.50836 4.95833 5.61873 4.75962C5.72911 4.5609 5.7843 4.34135 5.7843 4.10096C5.7843 3.83173 5.73226 3.59615 5.62819 3.39423C5.52412 3.19231 5.36014 3.03686 5.13623 2.92788C4.91548 2.81571 4.63009 2.75962 4.28004 2.75962H2.91296V9H2V2ZM6.02554 9L4.35099 5.82692L5.3018 5.82212L7 8.94231V9H6.02554Z" fill="#EEEEEE"/>
</g>
<defs>
<filter id="filter0_d_21_4202" x="0" y="0" width="9" height="11" filterUnits="userSpaceOnUse" color-interpolation-filters="sRGB">
<feFlood flood-opacity="0" result="BackgroundImageFix"/>
<feColorMatrix in="SourceAlpha" type="matrix" values="0 0 0 0 0 0 0 0 0 0 0 0 0 0 0 0 0 0 127 0" result="hardAlpha"/>
<feOffset/>
<feGaussianBlur stdDeviation="1"/>
<feComposite in2="hardAlpha" operator="out"/>
<feColorMatrix type="matrix" values="0 0 0 0 0 0 0 0 0 0 0 0 0 0 0 0 0 0 0.5 0"/>
<feBlend mode="normal" in2="BackgroundImageFix" result="effect1_dropShadow_21_4202"/>
<feBlend mode="normal" in="SourceGraphic" in2="effect1_dropShadow_21_4202" result="shape"/>
</filter>
</defs>
</svg>
