<svg width="8" height="10" viewBox="0 0 8 10" fill="none" xmlns="http://www.w3.org/2000/svg">
<g filter="url(#filter0_d_21_4222)">
<path d="M2 5.06417V4.94118C2 4.52406 2.04602 4.13725 2.13807 3.78075C2.23012 3.42068 2.36277 3.10873 2.53604 2.84492C2.70931 2.57754 2.91912 2.37077 3.16548 2.2246C3.41184 2.07487 3.68799 2 3.99391 2C4.30254 2 4.58003 2.07487 4.8264 2.2246C5.07547 2.37077 5.28663 2.57754 5.4599 2.84492C5.63587 3.10873 5.76988 3.42068 5.86193 3.78075C5.95398 4.13725 6 4.52406 6 4.94118V5.06417C6 5.48128 5.95398 5.86809 5.86193 6.2246C5.76988 6.58111 5.63587 6.89305 5.4599 7.16043C5.28663 7.42424 5.07682 7.63102 4.83046 7.78075C4.5868 7.92692 4.31066 8 4.00203 8C3.6934 8 3.41591 7.92692 3.16954 7.78075C2.92318 7.63102 2.71201 7.42424 2.53604 7.16043C2.36277 6.89305 2.23012 6.58111 2.13807 6.2246C2.04602 5.86809 2 5.48128 2 5.06417ZM2.75127 4.94118V5.06417C2.75127 5.35294 2.77699 5.62567 2.82843 5.88235C2.87986 6.13547 2.95702 6.36007 3.0599 6.55615C3.16548 6.75223 3.29679 6.90731 3.45381 7.02139C3.61083 7.13191 3.79357 7.18717 4.00203 7.18717C4.20778 7.18717 4.38782 7.13191 4.54213 7.02139C4.69915 6.90731 4.8291 6.75223 4.93198 6.55615C5.03486 6.36007 5.11201 6.13547 5.16345 5.88235C5.2176 5.62567 5.24467 5.35294 5.24467 5.06417V4.94118C5.24467 4.65597 5.2176 4.38681 5.16345 4.13369C5.11201 3.87701 5.0335 3.65062 4.92792 3.45455C4.82504 3.2549 4.69509 3.09804 4.53807 2.98396C4.38376 2.86988 4.20237 2.81283 3.99391 2.81283C3.78816 2.81283 3.60677 2.86988 3.44975 2.98396C3.29543 3.09804 3.16548 3.2549 3.0599 3.45455C2.95702 3.65062 2.87986 3.87701 2.82843 4.13369C2.77699 4.38681 2.75127 4.65597 2.75127 4.94118Z" fill="#EEEEEE"/>
</g>
<defs>
<filter id="filter0_d_21_4222" x="0" y="0" width="8" height="10" filterUnits="userSpaceOnUse" color-interpolation-filters="sRGB">
<feFlood flood-opacity="0" result="BackgroundImageFix"/>
<feColorMatrix in="SourceAlpha" type="matrix" values="0 0 0 0 0 0 0 0 0 0 0 0 0 0 0 0 0 0 127 0" result="hardAlpha"/>
<feOffset/>
<feGaussianBlur stdDeviation="1"/>
<feComposite in2="hardAlpha" operator="out"/>
<feColorMatrix type="matrix" values="0 0 0 0 0 0 0 0 0 0 0 0 0 0 0 0 0 0 0.5 0"/>
<feBlend mode="normal" in2="BackgroundImageFix" result="effect1_dropShadow_21_4222"/>
<feBlend mode="normal" in="SourceGraphic" in2="effect1_dropShadow_21_4222" result="shape"/>
</filter>
</defs>
</svg>
