<svg width="8" height="10" viewBox="0 0 8 10" fill="none" xmlns="http://www.w3.org/2000/svg">
<g filter="url(#filter0_d_21_4198)">
<path d="M4.16558 8C3.83733 8 3.53958 7.93226 3.27233 7.79679C3.00799 7.65775 2.77996 7.46346 2.58824 7.2139C2.39942 6.96435 2.25418 6.66845 2.15251 6.3262C2.05084 5.98396 2 5.60963 2 5.20321V4.97861C2 4.50802 2.05664 4.08913 2.16993 3.72193C2.28322 3.35116 2.43718 3.03743 2.63181 2.78075C2.82643 2.52406 3.0472 2.32977 3.29412 2.19786C3.54103 2.06595 3.79666 2 4.061 2C4.39797 2 4.68845 2.0713 4.93246 2.2139C5.17938 2.35651 5.38126 2.55615 5.53813 2.81283C5.69499 3.06595 5.81118 3.36542 5.88671 3.71123C5.96224 4.05348 6 4.42781 6 4.83422V5.27807H2.4793V4.47059H5.1939V4.39572C5.18228 4.13904 5.13871 3.88948 5.06318 3.64706C4.99056 3.40463 4.87436 3.20499 4.7146 3.04813C4.55483 2.89127 4.33696 2.81283 4.061 2.81283C3.878 2.81283 3.70951 2.86096 3.55556 2.95722C3.4016 3.04991 3.26943 3.18895 3.15904 3.37433C3.04866 3.55971 2.96296 3.7861 2.90196 4.05348C2.84096 4.32086 2.81046 4.62923 2.81046 4.97861V5.20321C2.81046 5.47772 2.84096 5.73619 2.90196 5.97861C2.96587 6.21747 3.05737 6.42781 3.17647 6.60963C3.29848 6.79144 3.44517 6.93405 3.61656 7.03743C3.79085 7.14082 3.98838 7.19251 4.20915 7.19251C4.49383 7.19251 4.73493 7.12121 4.93246 6.97861C5.12999 6.83601 5.30283 6.64528 5.45098 6.40642L5.939 6.88235C5.83733 7.0713 5.70806 7.25134 5.5512 7.42246C5.39434 7.59358 5.20116 7.73262 4.97168 7.83957C4.7451 7.94652 4.4764 8 4.16558 8Z" fill="#EEEEEE"/>
</g>
<defs>
<filter id="filter0_d_21_4198" x="0" y="0" width="8" height="10" filterUnits="userSpaceOnUse" color-interpolation-filters="sRGB">
<feFlood flood-opacity="0" result="BackgroundImageFix"/>
<feColorMatrix in="SourceAlpha" type="matrix" values="0 0 0 0 0 0 0 0 0 0 0 0 0 0 0 0 0 0 127 0" result="hardAlpha"/>
<feOffset/>
<feGaussianBlur stdDeviation="1"/>
<feComposite in2="hardAlpha" operator="out"/>
<feColorMatrix type="matrix" values="0 0 0 0 0 0 0 0 0 0 0 0 0 0 0 0 0 0 0.5 0"/>
<feBlend mode="normal" in2="BackgroundImageFix" result="effect1_dropShadow_21_4198"/>
<feBlend mode="normal" in="SourceGraphic" in2="effect1_dropShadow_21_4198" result="shape"/>
</filter>
</defs>
</svg>
