<svg width="7" height="8" viewBox="0 0 7 8" fill="none" xmlns="http://www.w3.org/2000/svg">
<g filter="url(#filter0_d_21_4250)">
<path d="M3.5725 5.31551C3.69925 5.31551 3.8131 5.28818 3.91407 5.23351C4.01719 5.17647 4.09989 5.09804 4.16219 4.99822C4.22664 4.8984 4.26208 4.78313 4.26853 4.65241H5C4.9957 4.90196 4.92911 5.12894 4.80021 5.33333C4.67132 5.53773 4.50054 5.70053 4.28786 5.82175C4.07519 5.94058 3.83996 6 3.58217 6C3.31579 6 3.08378 5.95009 2.88614 5.85027C2.68851 5.74807 2.52417 5.60784 2.39313 5.42959C2.26208 5.25134 2.16327 5.04575 2.09667 4.81283C2.03222 4.57992 2 4.33036 2 4.06417V3.93939C2 3.6732 2.03222 3.42365 2.09667 3.19073C2.16327 2.95544 2.26208 2.74866 2.39313 2.57041C2.52417 2.39216 2.68851 2.25312 2.88614 2.1533C3.08378 2.0511 3.31472 2 3.57895 2C3.85822 2 4.10311 2.06179 4.31364 2.18538C4.52417 2.3066 4.68958 2.47653 4.80988 2.69519C4.93233 2.91147 4.9957 3.1634 5 3.45098H4.26853C4.26208 3.30838 4.22986 3.18004 4.17186 3.06595C4.116 2.94949 4.03652 2.8568 3.9334 2.78788C3.83244 2.71895 3.71106 2.68449 3.56928 2.68449C3.41246 2.68449 3.28249 2.72014 3.17938 2.79144C3.07626 2.86037 2.9957 2.95544 2.9377 3.07665C2.8797 3.19548 2.83781 3.32977 2.81203 3.4795C2.7884 3.62686 2.77658 3.78015 2.77658 3.93939V4.06417C2.77658 4.22341 2.7884 4.3779 2.81203 4.52763C2.83566 4.67736 2.87648 4.81165 2.93448 4.93048C2.99463 5.04694 3.07626 5.14082 3.17938 5.21212C3.28249 5.28105 3.41353 5.31551 3.5725 5.31551Z" fill="#EEEEEE"/>
</g>
<defs>
<filter id="filter0_d_21_4250" x="0" y="0" width="7" height="8" filterUnits="userSpaceOnUse" color-interpolation-filters="sRGB">
<feFlood flood-opacity="0" result="BackgroundImageFix"/>
<feColorMatrix in="SourceAlpha" type="matrix" values="0 0 0 0 0 0 0 0 0 0 0 0 0 0 0 0 0 0 127 0" result="hardAlpha"/>
<feOffset/>
<feGaussianBlur stdDeviation="1"/>
<feComposite in2="hardAlpha" operator="out"/>
<feColorMatrix type="matrix" values="0 0 0 0 0 0 0 0 0 0 0 0 0 0 0 0 0 0 0.5 0"/>
<feBlend mode="normal" in2="BackgroundImageFix" result="effect1_dropShadow_21_4250"/>
<feBlend mode="normal" in="SourceGraphic" in2="effect1_dropShadow_21_4250" result="shape"/>
</filter>
</defs>
</svg>
