<svg width="6" height="8" viewBox="0 0 6 8" fill="none" xmlns="http://www.w3.org/2000/svg">
<g filter="url(#filter0_d_21_4252)">
<path d="M3.39205 5.15508V3.31551C3.39205 3.17766 3.37701 3.05882 3.34694 2.959C3.31686 2.85918 3.27103 2.78194 3.20945 2.72727C3.1493 2.67261 3.0734 2.64528 2.98174 2.64528C2.89724 2.64528 2.8242 2.66904 2.76262 2.71658C2.70104 2.76411 2.65306 2.82828 2.61869 2.90909C2.58432 2.9899 2.56713 3.0814 2.56713 3.1836H2.05156C2.05156 3.03149 2.07376 2.88414 2.11815 2.74153C2.16255 2.59893 2.227 2.47178 2.31149 2.36007C2.39599 2.24837 2.49696 2.16043 2.61439 2.09626C2.73183 2.03209 2.86359 2 3.00967 2C3.18439 2 3.33906 2.04872 3.47368 2.14617C3.60974 2.24361 3.71643 2.39097 3.79377 2.58824C3.87254 2.78313 3.91192 3.02793 3.91192 3.32264V5.03743C3.91192 5.21331 3.91908 5.37136 3.9334 5.51159C3.94916 5.64944 3.97136 5.76946 4 5.87166V5.9287H3.46939C3.44504 5.83601 3.42571 5.71836 3.41139 5.57576C3.3985 5.43078 3.39205 5.29055 3.39205 5.15508ZM3.46724 3.58289L3.47154 4.11408H3.09989C3.00394 4.11408 2.91944 4.12953 2.8464 4.16043C2.77336 4.18895 2.7125 4.23173 2.6638 4.28877C2.61511 4.34581 2.57859 4.41474 2.55424 4.49554C2.5299 4.57635 2.51772 4.66786 2.51772 4.77005C2.51772 4.87225 2.53204 4.96613 2.56069 5.05169C2.58933 5.13488 2.63086 5.20024 2.68528 5.24777C2.74114 5.29531 2.80845 5.31907 2.88722 5.31907C2.9932 5.31907 3.08557 5.28342 3.16434 5.21212C3.24454 5.13844 3.30755 5.04932 3.35338 4.94474C3.39921 4.83779 3.42356 4.73678 3.42642 4.64171L3.59398 5.02317C3.5768 5.12062 3.54744 5.22519 3.50591 5.3369C3.46438 5.4486 3.40995 5.55556 3.34264 5.65775C3.27676 5.75758 3.19728 5.83957 3.10419 5.90374C3.01253 5.96791 2.90655 6 2.78625 6C2.63444 6 2.4991 5.95009 2.38024 5.85027C2.26137 5.74807 2.16828 5.61141 2.10097 5.44029C2.03366 5.26679 2 5.07071 2 4.85205C2 4.64765 2.02291 4.46702 2.06874 4.31016C2.116 4.15092 2.18475 4.01783 2.27497 3.91087C2.36663 3.80392 2.47834 3.72311 2.6101 3.66845C2.74185 3.61141 2.89223 3.58289 3.06122 3.58289H3.46724Z" fill="#EEEEEE"/>
</g>
<defs>
<filter id="filter0_d_21_4252" x="0" y="0" width="6" height="8" filterUnits="userSpaceOnUse" color-interpolation-filters="sRGB">
<feFlood flood-opacity="0" result="BackgroundImageFix"/>
<feColorMatrix in="SourceAlpha" type="matrix" values="0 0 0 0 0 0 0 0 0 0 0 0 0 0 0 0 0 0 127 0" result="hardAlpha"/>
<feOffset/>
<feGaussianBlur stdDeviation="1"/>
<feComposite in2="hardAlpha" operator="out"/>
<feColorMatrix type="matrix" values="0 0 0 0 0 0 0 0 0 0 0 0 0 0 0 0 0 0 0.5 0"/>
<feBlend mode="normal" in2="BackgroundImageFix" result="effect1_dropShadow_21_4252"/>
<feBlend mode="normal" in="SourceGraphic" in2="effect1_dropShadow_21_4252" result="shape"/>
</filter>
</defs>
</svg>
